<svg width="66" height="66" viewBox="0 0 66 66" fill="none" xmlns="http://www.w3.org/2000/svg">
<circle cx="33" cy="33" r="31.5" fill="white" stroke="#39424E" stroke-width="3"/>
<path d="M27.2838 22.6155C30.5346 24.9628 33.216 28.1807 35.5319 30.8275L29.9993 31.9341C27.7936 29.419 25.1053 25.0351 20.8673 25.8406C16.6293 26.6462 14.9947 32.4163 18.3843 35.426C21.7724 38.4357 26.154 35.7786 28.3764 32.3602C29.3745 33.5361 30.5157 35.0159 31.4053 35.9793C29.0144 39.2619 25.8532 41.6417 21.7483 41.5119C17.6435 41.382 14.1916 38.958 12.6392 34.9185C11.0882 30.8775 12.4664 26.1018 15.6222 23.3281C18.7781 20.5559 24.0317 20.2697 27.2838 22.6155Z" fill="#FF6B00"/>
<path fill-rule="evenodd" clip-rule="evenodd" d="M36.8604 30.4423C39.0828 27.0239 43.5382 24.0805 46.9263 27.0903C48.6733 28.6415 49.0857 30.926 48.4949 32.8862L51.7647 36.6747C53.362 33.9878 53.8203 30.5921 52.6714 27.5978C51.119 23.5568 47.6671 21.1343 43.5623 21.0044C39.4574 20.8746 36.1798 23.6232 33.7888 26.9058C34.4154 27.6309 35.0261 28.3326 35.6157 29.0101C36.0423 29.5003 36.4578 29.9778 36.8604 30.4423ZM47.7896 40.4508L44.5106 36.6624C44.4882 36.667 44.4658 36.6714 44.4433 36.6756C40.8571 37.3585 38.7758 34.8225 36.6389 32.2187C36.2505 31.7454 35.8603 31.2699 35.4588 30.8111L30 31.9176C30.2913 32.2497 30.5756 32.5761 30.8553 32.8972C33.1501 35.5313 35.1305 37.8045 38.0268 39.9008C40.6882 41.825 44.6931 41.9799 47.7896 40.4508Z" fill="#39424E"/>
<path d="M45.9492 31.3275L54.7946 41.5686L49.8807 41.5686L43.1305 33.7661L45.9492 31.3275Z" fill="#FF6B00"/>
</svg>
