<svg width="65" height="45" viewBox="0 0 65 45" fill="none" xmlns="http://www.w3.org/2000/svg">
<rect x="1.5" y="1.96918" width="61.7865" height="41.087" rx="3.5" stroke="#39424E" stroke-width="3"/>
<mask id="path-2-outside-1_97_210" maskUnits="userSpaceOnUse" x="3" y="3.46918" width="59" height="12" fill="black">
<rect fill="white" x="3" y="3.46918" width="59" height="12"/>
<path d="M3 3.46918H61.7865V12.5769H3V3.46918Z"/>
</mask>
<path d="M61.7865 10.5769H3V14.5769H61.7865V10.5769Z" fill="#39424E" mask="url(#path-2-outside-1_97_210)"/>
<circle cx="46.469" cy="7.85751" r="1.24197" fill="#FF6B00"/>
<circle cx="51.4368" cy="7.85751" r="1.24197" fill="#FF6B00"/>
<circle cx="56.4048" cy="7.85751" r="1.24197" fill="#FF6B00"/>
<g opacity="0.2">
<line x1="6" y1="19.9692" x2="20" y2="19.9692" stroke="#39424E"/>
<line x1="6" y1="19.9692" x2="20" y2="19.9692" stroke="#39424E"/>
<line x1="6" y1="19.9692" x2="20" y2="19.9692" stroke="#39424E"/>
</g>
<g opacity="0.2">
<line x1="45" y1="19.9692" x2="59" y2="19.9692" stroke="#39424E"/>
<line x1="45" y1="19.9692" x2="59" y2="19.9692" stroke="#39424E"/>
<line x1="45" y1="19.9692" x2="59" y2="19.9692" stroke="#39424E"/>
</g>
<g opacity="0.2">
<line x1="6" y1="23.9692" x2="59" y2="23.9692" stroke="#39424E"/>
<line x1="6" y1="23.9692" x2="59" y2="23.9692" stroke="#39424E"/>
<line x1="6" y1="23.9692" x2="59" y2="23.9692" stroke="#39424E"/>
</g>
<g opacity="0.2">
<line x1="6" y1="27.9692" x2="38" y2="27.9692" stroke="#39424E"/>
<line x1="6" y1="27.9692" x2="38" y2="27.9692" stroke="#39424E"/>
<line x1="6" y1="27.9692" x2="38" y2="27.9692" stroke="#39424E"/>
</g>
<g opacity="0.2">
<line x1="59" y1="27.9692" x2="46" y2="27.9692" stroke="#39424E"/>
<line x1="59" y1="27.9692" x2="46" y2="27.9692" stroke="#39424E"/>
<line x1="59" y1="27.9692" x2="46" y2="27.9692" stroke="#39424E"/>
</g>
<g opacity="0.2">
<line x1="19" y1="31.9692" x2="6" y2="31.9692" stroke="#39424E"/>
<line x1="19" y1="31.9692" x2="6" y2="31.9692" stroke="#39424E"/>
<line x1="19" y1="31.9692" x2="6" y2="31.9692" stroke="#39424E"/>
</g>
<g opacity="0.2">
<line x1="59" y1="31.9692" x2="26" y2="31.9692" stroke="#39424E"/>
<line x1="59" y1="31.9692" x2="26" y2="31.9692" stroke="#39424E"/>
<line x1="59" y1="31.9692" x2="26" y2="31.9692" stroke="#39424E"/>
</g>
<g opacity="0.2">
<line x1="59" y1="35.9692" x2="6" y2="35.9692" stroke="#39424E"/>
<line x1="59" y1="35.9692" x2="6" y2="35.9692" stroke="#39424E"/>
<line x1="59" y1="35.9692" x2="6" y2="35.9692" stroke="#39424E"/>
</g>
<path d="M24.35 20.6083H40.3846V36.3834C40.2644 36.7588 39.9848 37.1166 39.5427 37.4476C39.0833 37.7915 38.4676 38.0916 37.7334 38.3391C36.2654 38.8341 34.3778 39.1011 32.4687 39.1183C30.5597 39.1355 28.6556 38.9026 27.1541 38.4162C25.6586 37.9318 24.6641 37.2305 24.35 36.3757V20.6083Z" fill="#FF6B00" stroke="#39424E" stroke-width="0.7"/>
<path d="M40.3846 20.2583C40.3846 20.4902 40.2439 20.7668 39.8604 21.069C39.4808 21.3682 38.9099 21.6529 38.1732 21.8984C36.7034 22.3884 34.6507 22.6974 32.3673 22.6974C30.0839 22.6974 28.0312 22.3884 26.5614 21.8984C25.8247 21.6529 25.2538 21.3682 24.8742 21.069C24.4907 20.7668 24.35 20.4902 24.35 20.2583C24.35 20.0264 24.4907 19.7498 24.8742 19.4475C25.2538 19.1484 25.8247 18.8637 26.5614 18.6181C28.0312 18.1282 30.0839 17.8192 32.3673 17.8192C34.6507 17.8192 36.7034 18.1282 38.1732 18.6181C38.9099 18.8637 39.4808 19.1484 39.8604 19.4475C40.2439 19.7498 40.3846 20.0264 40.3846 20.2583Z" fill="#FF6B00" stroke="#39424E" stroke-width="0.7"/>
<path d="M24.2788 25.2787C25.3944 28.6256 39.34 28.6256 40.4556 25.2787" stroke="#39424E" stroke-width="0.7"/>
<path d="M24.2788 30.857C25.3944 34.2039 39.34 34.2039 40.4556 30.857" stroke="#39424E" stroke-width="0.7"/>
</svg>
