<svg width="49" height="47" viewBox="0 0 49 47" fill="none" xmlns="http://www.w3.org/2000/svg">
<path d="M35.4879 28.6983L33.7869 29.2653C33.7283 29.2848 33.664 29.2762 33.6127 29.242L31.9325 28.1218C31.8531 28.069 31.7475 28.0794 31.6801 28.1468L30 29.827C29.9391 29.8879 29.924 29.9809 29.9625 30.0579L31.1263 32.3855C31.15 32.433 31.1539 32.4879 31.1372 32.5382L30.5654 34.2535C30.5438 34.3184 30.4905 34.3677 30.4242 34.3843L28.1515 34.9524C28.0625 34.9747 28 35.0547 28 35.1465V37.3649C28 37.4566 28.0625 37.5366 28.1515 37.5589L30.4242 38.1271C30.4905 38.1436 30.5438 38.193 30.5654 38.2578L31.1324 39.9589C31.152 40.0175 31.1433 40.0818 31.1091 40.1331L29.972 41.8388C29.9272 41.906 29.9272 41.9935 29.972 42.0607L31.0654 43.7009C31.1214 43.7848 31.2311 43.8139 31.3213 43.7688L33.62 42.6195C33.6674 42.5957 33.7223 42.5918 33.7727 42.6086L35.4879 43.1804C35.5528 43.202 35.6021 43.2553 35.6187 43.3216L36.1869 45.5943C36.2092 45.6833 36.2892 45.7458 36.3809 45.7458H39.1881C39.2986 45.7458 39.3881 45.6562 39.3881 45.5458V43.3712C39.3881 43.2795 39.4506 43.1995 39.5396 43.1772L41.8471 42.6004C41.8934 42.5888 41.9423 42.5942 41.985 42.6155L44.3206 43.7833C44.3976 43.8218 44.4906 43.8067 44.5515 43.7458L45.613 42.6843C45.6738 42.6235 45.6889 42.5305 45.6504 42.4535L44.4866 40.1258C44.4629 40.0784 44.459 40.0234 44.4757 39.9731L45.0475 38.2578C45.0691 38.193 45.1224 38.1436 45.1887 38.1271L47.4614 37.5589C47.5505 37.5366 47.6129 37.4566 47.6129 37.3649V35.1465C47.6129 35.0547 47.5505 34.9747 47.4614 34.9524L45.1986 34.3867C45.127 34.3688 45.071 34.3129 45.0531 34.2412L44.471 31.9128C44.4573 31.8581 44.4674 31.8002 44.4986 31.7533L45.6239 30.0653C45.6768 29.986 45.6664 29.8804 45.599 29.813L43.9188 28.1328C43.8579 28.072 43.7649 28.0569 43.6879 28.0954L41.3756 29.2515C41.3193 29.2797 41.253 29.2797 41.1967 29.2515L40.1031 28.7047C40.0509 28.6786 40.0127 28.631 39.9985 28.5743L39.426 26.2844C39.4038 26.1953 39.3238 26.1329 39.232 26.1329H36.3809C36.2892 26.1329 36.2092 26.1953 36.1869 26.2844L35.6187 28.5571C35.6021 28.6234 35.5528 28.6767 35.4879 28.6983Z" stroke="#39424E" stroke-width="1.5"/>
<circle cx="38.1228" cy="35.623" r="2.66337" stroke="#FF6B00"/>
<path d="M1.75 7.00847H34.9846V39.7243C34.7364 40.4961 34.1602 41.2339 33.2465 41.918C32.2958 42.6297 31.0202 43.2516 29.4978 43.7649C26.4537 44.7913 22.5383 45.3452 18.5776 45.3809C14.6168 45.4166 10.6674 44.9335 7.55392 43.9249C4.45351 42.9205 2.3997 41.4695 1.75 39.7077V7.00847Z" fill="#FF6B00" stroke="#39424E" stroke-width="1.5"/>
<path d="M34.9846 6.25828C34.9846 6.72929 34.6989 7.29737 33.9056 7.9226C33.1207 8.54117 31.9384 9.13103 30.4107 9.64028C27.363 10.6562 23.105 11.2974 18.3673 11.2974C13.6296 11.2974 9.37161 10.6562 6.32394 9.64028C4.79618 9.13103 3.61394 8.54117 2.82904 7.9226C2.03569 7.29737 1.75 6.72929 1.75 6.25828C1.75 5.78727 2.03569 5.21919 2.82904 4.59396C3.61394 3.97539 4.79618 3.38553 6.32394 2.87628C9.37161 1.86039 13.6296 1.21918 18.3673 1.21918C23.105 1.21918 27.363 1.86039 30.4107 2.87628C31.9384 3.38553 33.1207 3.97539 33.9056 4.59396C34.6989 5.21919 34.9846 5.78727 34.9846 6.25828Z" fill="#FF6B00" stroke="#39424E" stroke-width="1.5"/>
<path d="M1.57886 16.6786C3.8945 23.6256 32.84 23.6256 35.1556 16.6786" stroke="#39424E" stroke-width="1.5"/>
<path d="M1.57886 28.2572C3.8945 35.2042 32.84 35.2042 35.1556 28.2572" stroke="#39424E" stroke-width="1.5"/>
</svg>
