<svg width="42" height="52" viewBox="0 0 42 52" fill="none" xmlns="http://www.w3.org/2000/svg">
<path d="M38 12.9692C38 13.7976 38.6716 14.4692 39.5 14.4692C40.3284 14.4692 41 13.7976 41 12.9692H38ZM39.5 10.4692H41V9.48358L40.0954 9.09239L39.5 10.4692ZM21 2.46918L21.5954 1.09239L21.0079 0.83833L20.4179 1.08672L21 2.46918ZM2 10.4692L1.41791 9.08672L0.5 9.47321V10.4692H2ZM2 32.9692H0.5V33.2937L0.634167 33.5893L2 32.9692ZM21 49.4692L20.3524 50.8222L21.0172 51.1404L21.6754 50.8085L21 49.4692ZM39.5 32.9692L40.8679 33.5847L41 33.2911V32.9692H39.5ZM41 12.9692V10.4692H38V12.9692H41ZM40.0954 9.09239L21.5954 1.09239L20.4046 3.84596L38.9046 11.846L40.0954 9.09239ZM20.4179 1.08672L1.41791 9.08672L2.58209 11.8516L21.5821 3.85163L20.4179 1.08672ZM0.5 10.4692V32.9692H3.5V10.4692H0.5ZM0.634167 33.5893C2.34308 37.3534 4.2763 40.2662 7.34671 42.9573C10.3778 45.6139 14.4559 47.9997 20.3524 50.8222L21.6476 48.1162C15.8186 45.326 12.04 43.0816 9.3241 40.7012C6.64756 38.3553 4.94357 35.8243 3.36583 32.3491L0.634167 33.5893ZM21.6754 50.8085C26.7007 48.2744 30.5535 46.1122 33.6149 43.5093C36.7173 40.8716 38.9604 37.8237 40.8679 33.5847L38.1321 32.3537C36.3855 36.2352 34.3967 38.9069 31.6717 41.2237C28.9057 43.5755 25.3356 45.603 20.3246 48.1298L21.6754 50.8085ZM41 32.9692V24.4692H38V32.9692H41Z" fill="#39424E"/>
<circle cx="39.5" cy="22.9692" r="1.75" stroke="#39424E" stroke-width="1.5"/>
<circle cx="9" cy="25.9692" r="1.75" stroke="#39424E" stroke-width="1.5"/>
<path d="M14.4646 35.8205C13.8302 35.2877 12.8841 35.3701 12.3513 36.0045C11.8186 36.6389 11.901 37.5851 12.5354 38.1179L14.4646 35.8205ZM21 41.9692L20.2414 43.2632L21.0602 43.7432L21.8446 43.2088L21 41.9692ZM32.5 32.4692L33.6066 33.4818L34 33.0519V32.4692H32.5ZM32.5 15.4692H34V14.5224L33.1453 14.1151L32.5 15.4692ZM21 10.4692L21.5416 9.07039L21.0226 8.86941L20.4982 9.05561L21 10.4692ZM9 15.4692L8.32537 14.1295L7.5 14.5451V15.4692H9ZM12.5354 38.1179C14.9599 40.1539 16.9062 41.3081 20.2414 43.2632L21.7586 40.6751C18.4162 38.7158 16.6728 37.6748 14.4646 35.8205L12.5354 38.1179ZM21.8446 43.2088C26.8743 39.7817 29.7078 37.7422 33.6066 33.4818L31.3934 31.4565C27.7328 35.4567 25.1294 37.3404 20.1554 40.7296L21.8446 43.2088ZM34 32.4692V15.4692H31V32.4692H34ZM33.1453 14.1151C28.6579 11.9766 26.1082 10.8387 21.5416 9.07039L20.4584 11.868C24.938 13.6026 27.4169 14.7084 31.8547 16.8233L33.1453 14.1151ZM20.4982 9.05561C15.6324 10.783 12.8549 11.8486 8.32537 14.1295L9.67463 16.8089C14.0472 14.6071 16.6948 13.5893 21.5018 11.8827L20.4982 9.05561ZM7.5 15.4692V24.4692H10.5V15.4692H7.5Z" fill="#39424E"/>
<circle cx="21" cy="22.4692" r="3.5" stroke="#FF6B00" stroke-width="2"/>
<line x1="21" y1="25.4692" x2="21" y2="32.4692" stroke="#FF6B00" stroke-width="3"/>
</svg>
