<svg width="56" height="55" viewBox="0 0 56 55" fill="none" xmlns="http://www.w3.org/2000/svg">
<rect x="20.1294" y="21.0457" width="18.3529" height="12.2353" rx="6.11765" stroke="#39424E" stroke-width="2"/>
<path d="M41.5412 16.1516H25.6353C19.5537 16.1516 14.6235 21.0817 14.6235 27.1633V27.1633C14.6235 33.245 19.5537 38.1751 25.6353 38.1751H41.7726" stroke="#39424E" stroke-width="2"/>
<circle cx="45.2116" cy="16.1516" r="3.67059" stroke="#39424E" stroke-width="2"/>
<circle cx="45.2116" cy="38.1751" r="3.67059" stroke="#39424E" stroke-width="2"/>
<path d="M38.4822 27.1633H47.6587M35.4234 5.13974H31.1411M30.5293 49.7986H35.4234" stroke="#39424E" stroke-width="2"/>
<circle cx="51.3293" cy="27.1633" r="3.67059" stroke="#39424E" stroke-width="2"/>
<circle cx="39.0939" cy="5.13977" r="3.67059" stroke="#39424E" stroke-width="2"/>
<circle cx="39.0939" cy="49.7985" r="3.67059" stroke="#39424E" stroke-width="2"/>
<path d="M12.6131 8.33344L12.6131 8.33344C11.9017 7.7999 10.8993 7.90475 10.3137 8.57399L11.3611 9.49046L10.3137 8.57399L6.2767 13.1877L7.40557 14.1755L6.2767 13.1877C5.68735 13.8612 5.72114 14.8764 6.354 15.5092L9.70399 18.8592L7.62328 22.6045H3.2C2.26112 22.6045 1.5 23.3656 1.5 24.3045V30.6339C1.5 31.5728 2.26112 32.3339 3.2 32.3339H8.14284L9.80477 36.0733L6.2767 40.1054L7.40125 41.0893L6.27669 40.1054C5.68736 40.7789 5.72115 41.794 6.35399 42.4269L7.4103 41.3706L6.354 42.4269L10.3717 46.4446L11.4324 45.384L10.3718 46.4446C11.0046 47.0775 12.0197 47.1113 12.6933 46.5219L16.6887 43.0259L19.8529 44.608V49.5986C19.8529 50.5375 20.614 51.2986 21.5529 51.2986H28.4941C29.433 51.2986 30.1941 50.5375 30.1941 49.5986V4.72804C30.1941 3.78917 29.433 3.02804 28.4941 3.02804H21.5529C20.6141 3.02804 19.8529 3.78915 19.8529 4.72804V9.71864L16.6172 11.3365L12.6131 8.33344ZM10.3517 35.4482L10.3509 35.4491C10.3512 35.4488 10.3514 35.4485 10.3517 35.4482L11.33 36.3043L10.3517 35.4482Z" stroke="#FF6B00" stroke-width="3"/>
</svg>
