<svg width="45" height="45" viewBox="0 0 45 45" fill="none" xmlns="http://www.w3.org/2000/svg">
<path d="M40.2626 44.2667C41.2553 45.2263 42.838 45.1995 43.7976 44.2068C44.7572 43.214 44.7304 41.6314 43.7377 40.6717L40.2626 44.2667ZM24.8572 29.3748L40.2626 44.2667L43.7377 40.6717L28.3323 25.7798L24.8572 29.3748Z" fill="#FF6B00"/>
<circle cx="17.3514" cy="17.8205" r="15.3514" stroke="#39424E" stroke-width="4"/>
<path d="M16.3794 14.4804L12.2468 14.2317C13.041 10.5785 17.1077 9.80229 19.3223 12.2328L16.3794 14.4804Z" fill="#39424E" stroke="#FF6B00" stroke-width="0.5"/>
<path d="M17.9834 22.4757C16.6012 22.4129 15.23 21.9521 14.196 20.903C13.1168 19.808 12.3718 18.0385 12.3994 15.313L16.068 15.7716L17.9834 22.4757Z" fill="#39424E" stroke="#FF6B00" stroke-width="0.5"/>
<path d="M18.669 22.3273C19.8423 21.5939 20.8105 20.5192 21.1962 19.0975C21.5987 17.6137 21.3788 15.7064 20.0165 13.3457L17.0458 15.5465L18.669 22.3273Z" fill="#39424E" stroke="#FF6B00" stroke-width="0.5"/>
<path d="M8.10815 16.0612L11.3328 16.4479" stroke="#FF6B00" stroke-linecap="round"/>
<path d="M8.5603 20.3611L11.5692 19.1386" stroke="#FF6B00" stroke-linecap="round"/>
<path d="M10.6145 24.5483L12.8784 22.2197" stroke="#FF6B00" stroke-linecap="round"/>
<path d="M24.2422 11.9495L21.4307 13.5753" stroke="#FF6B00" stroke-linecap="round"/>
<path d="M25.5205 16.0799L22.2734 16.1416" stroke="#FF6B00" stroke-linecap="round"/>
<path d="M25.2822 20.7376L22.284 19.4893" stroke="#FF6B00" stroke-linecap="round"/>
</svg>
