<svg width="55" height="55" viewBox="0 0 55 55" fill="none" xmlns="http://www.w3.org/2000/svg">
<path d="M23.35 24.087H30.2566V31.0342C30.2128 31.1485 30.1182 31.2719 29.9504 31.3975C29.763 31.5378 29.5032 31.6661 29.1815 31.7746C28.5382 31.9915 27.7013 32.1111 26.8477 32.1188C25.994 32.1265 25.1501 32.022 24.4925 31.8089C23.846 31.5995 23.474 31.3176 23.35 31.0267V24.087Z" fill="#FF6B00" stroke="#39424E" stroke-width="0.7"/>
<path d="M30.2566 23.7369C30.2566 23.7588 30.2437 23.8353 30.0911 23.9555C29.9425 24.0727 29.7057 24.1934 29.382 24.3014C28.7381 24.516 27.8264 24.6547 26.8033 24.6547C25.7802 24.6547 24.8685 24.516 24.2246 24.3014C23.9009 24.1934 23.6641 24.0727 23.5155 23.9555C23.363 23.8353 23.35 23.7588 23.35 23.7369C23.35 23.7151 23.363 23.6386 23.5155 23.5184C23.6641 23.4012 23.9009 23.2805 24.2246 23.1725C24.8685 22.9579 25.7802 22.8192 26.8033 22.8192C27.8264 22.8192 28.7381 22.9579 29.382 23.1725C29.7057 23.2805 29.9425 23.4012 30.0911 23.5184C30.2437 23.6386 30.2566 23.7151 30.2566 23.7369Z" fill="#FF6B00" stroke="#39424E" stroke-width="0.7"/>
<path d="M23.1267 26.0189C23.6338 27.5402 29.9727 27.5402 30.4798 26.0189" stroke="#39424E" stroke-width="0.7"/>
<path d="M23.1267 28.5545C23.6338 30.0759 29.9727 30.0759 30.4798 28.5545" stroke="#39424E" stroke-width="0.7"/>
<ellipse cx="27" cy="27.4692" rx="10" ry="26" stroke="#39424E" stroke-width="2"/>
<ellipse cx="27" cy="27.4692" rx="10" ry="26" stroke="#39424E" stroke-width="2"/>
<ellipse cx="27.4378" cy="27.5737" rx="10" ry="26" transform="rotate(55 27.4378 27.5737)" stroke="#39424E" stroke-width="2"/>
<ellipse cx="27.4378" cy="27.5737" rx="10" ry="26" transform="rotate(55 27.4378 27.5737)" stroke="#39424E" stroke-width="2"/>
<ellipse cx="27.0337" cy="27.1906" rx="10" ry="26" transform="rotate(-55 27.0337 27.1906)" stroke="#39424E" stroke-width="2"/>
<ellipse cx="27.0337" cy="27.1906" rx="10" ry="26" transform="rotate(-55 27.0337 27.1906)" stroke="#39424E" stroke-width="2"/>
</svg>
