<svg width="52" height="49" viewBox="0 0 52 49" fill="none" xmlns="http://www.w3.org/2000/svg">
<path d="M26.0913 34.3415V42.2642" stroke="#FF6B00" stroke-width="2"/>
<circle cx="2.79624" cy="2.79624" r="2.79624" transform="matrix(-1 0 0 1 28.8875 41.7981)" stroke="#FF6B00" stroke-width="2"/>
<path d="M17.2366 33.8755V41.7981H13.0422" stroke="#FF6B00" stroke-width="2"/>
<circle cx="11.1781" cy="41.7981" r="2.79624" stroke="#FF6B00" stroke-width="2"/>
<path d="M34.48 33.8755V41.7982H38.6743" stroke="#FF6B00" stroke-width="2"/>
<circle cx="2.79624" cy="2.79624" r="2.79624" transform="matrix(-1 0 0 1 43.3347 39.0019)" stroke="#FF6B00" stroke-width="2"/>
<path d="M43.1999 32.8755H8.71294C-2.0061 31.0113 0.790267 15.632 10.5771 16.5641C11.043 8.6414 18.0336 8.64158 21.296 10.5056C26.8884 -4.87336 45.53 4.44741 40.8697 16.5641C46.9281 15.6324 49.7244 21.6909 49.7244 24.0211C49.7244 31.0117 43.1999 32.8755 43.1999 32.8755Z" fill="#39424E" fill-opacity="0.2"/>
<path d="M40.8697 16.5641C45.53 4.44741 26.8884 -4.87336 21.296 10.5056C18.0336 8.64158 11.043 8.6414 10.5771 16.5641C0.790267 15.632 -2.0061 31.0113 8.71294 32.8755H43.1999C43.1999 32.8755 49.7244 31.0117 49.7244 24.0211C49.7244 21.6909 46.9281 15.6324 40.8697 16.5641ZM40.8697 16.5641C40.8912 16.5071 40.8476 16.6214 40.8697 16.5641Z" stroke="#39424E" stroke-width="3"/>
</svg>
