<svg width="407" height="25" viewBox="0 0 407 25" fill="none" xmlns="http://www.w3.org/2000/svg">
<line opacity="0.2" x1="2.18557e-08" y1="11.75" x2="407" y2="11.7501" stroke="black" stroke-width="0.5"/>
<rect x="173" y="3.05176e-05" width="61" height="25" fill="white"/>
<path d="M201.04 15.1066C200.507 15.1066 200.045 14.9894 199.655 14.755C199.264 14.5206 198.961 14.1927 198.746 13.7713C198.533 13.3499 198.426 12.8575 198.426 12.2941C198.426 11.7306 198.533 11.237 198.746 10.8132C198.961 10.3895 199.264 10.0604 199.655 9.82602C200.045 9.59165 200.507 9.47446 201.04 9.47446C201.572 9.47446 202.034 9.59165 202.425 9.82602C202.815 10.0604 203.117 10.3895 203.33 10.8132C203.546 11.237 203.653 11.7306 203.653 12.2941C203.653 12.8575 203.546 13.3499 203.33 13.7713C203.117 14.1927 202.815 14.5206 202.425 14.755C202.034 14.9894 201.572 15.1066 201.04 15.1066ZM201.047 14.0767C201.336 14.0767 201.577 13.9974 201.771 13.8388C201.965 13.6778 202.11 13.4624 202.205 13.1925C202.302 12.9226 202.35 12.622 202.35 12.2905C202.35 11.9567 202.302 11.6549 202.205 11.385C202.11 11.1127 201.965 10.8961 201.771 10.7351C201.577 10.5741 201.336 10.4936 201.047 10.4936C200.751 10.4936 200.505 10.5741 200.308 10.7351C200.114 10.8961 199.969 11.1127 199.871 11.385C199.777 11.6549 199.729 11.9567 199.729 12.2905C199.729 12.622 199.777 12.9226 199.871 13.1925C199.969 13.4624 200.114 13.6778 200.308 13.8388C200.505 13.9974 200.751 14.0767 201.047 14.0767ZM204.744 15V9.54548H205.991V10.4546H206.048C206.147 10.1397 206.318 9.89705 206.559 9.72659C206.803 9.55377 207.081 9.46736 207.394 9.46736C207.465 9.46736 207.544 9.47091 207.632 9.47801C207.722 9.48275 207.796 9.49103 207.855 9.50287V10.6854C207.801 10.6665 207.714 10.6499 207.596 10.6357C207.48 10.6191 207.368 10.6108 207.259 10.6108C207.024 10.6108 206.814 10.6617 206.627 10.7635C206.442 10.863 206.296 11.0015 206.19 11.179C206.083 11.3566 206.03 11.5613 206.03 11.7934V15H204.744Z" fill="#39424E"/>
</svg>
