<svg width="37" height="51" viewBox="0 0 37 51" fill="none" xmlns="http://www.w3.org/2000/svg">
<path d="M23.81 1.6838C24.0716 4.97983 22.5282 7.41261 17.6626 11.3103C11.6722 16.1235 10.8613 17.85 12.9278 21.46C13.6603 22.7418 18.055 27.6073 18.2904 27.3719C18.3427 27.3196 17.6365 26.1163 16.6947 24.6775C14.6282 21.5385 14.1835 20.152 14.6805 18.3732C15.099 16.7775 16.1977 15.3911 18.9444 12.9845C21.7173 10.5778 22.9206 9.16526 23.8623 7.30798C24.8825 5.3199 25.0918 3.56725 24.5163 1.86691C23.9408 0.061945 23.6792 0.0096283 23.81 1.6838Z" fill="#FF6B00"/>
<path d="M26.5565 11.4934C21.6125 13.4553 18.6565 16.3328 18.6304 19.2365C18.6304 20.4136 19.5198 22.4802 20.5138 23.6835C21.9787 25.4623 22.1618 26.8226 21.0893 28.3921L20.4353 29.3861L21.5079 28.5752C23.4959 27.1103 24.5685 25.0961 24.1238 23.605C24.0191 23.1865 23.3913 22.0616 22.7112 21.0938C21.1939 18.8702 21.0893 17.6669 22.2926 15.9928C23.0512 14.9464 26.5304 12.1735 28.0999 11.3626C28.8062 10.9964 29.0416 10.7348 28.6493 10.7348C28.5185 10.761 27.6029 11.0749 26.5565 11.4934Z" fill="#FF6B00"/>
<path d="M30.8205 27.8166C30.4281 28.1043 30.5328 28.1305 31.4745 28.052C33.7765 27.8166 35.4768 29.6739 34.849 31.7142C34.4566 33.0484 32.8086 34.8272 30.8728 36.0305C30.0357 36.5537 29.3818 37.0245 29.4341 37.0768C29.591 37.2076 31.4483 36.5013 32.9655 35.7427C35.6861 34.3563 36.9417 32.7868 36.9417 30.7987C36.9417 29.4907 36.3139 28.4967 35.1106 27.8689C34.1689 27.398 31.4483 27.3457 30.8205 27.8166Z" fill="#39424E"/>
<path d="M10.6519 27.9212C7.80061 28.3136 3.90293 29.8831 4.03372 30.5633C4.32147 31.9758 13.8957 32.656 21.3248 31.7927C25.2486 31.3219 26.8443 30.9818 27.9169 30.2755L28.7016 29.7785L27.7599 29.9354C22.7112 30.7987 10.7827 31.1911 8.6377 30.5894C6.78041 30.0924 7.40823 29.4123 10.6519 28.3659C12.4046 27.8166 12.4046 27.6858 10.6519 27.9212Z" fill="#39424E"/>
<path d="M9.05634 34.2517C8.0623 34.8533 7.85303 35.1411 8.0623 35.6642C8.55932 37.0245 14.2358 37.8878 19.5461 37.4169C22.3451 37.1815 26.3213 36.5013 26.8183 36.1874C26.9229 36.1351 26.609 35.795 26.1381 35.4811C25.3011 34.9056 25.1964 34.8795 23.1822 35.1934C19.7292 35.7427 16.2762 35.8997 13.451 35.6119C10.652 35.3503 9.86727 35.0364 10.0765 34.2255C10.2335 33.6239 10.0765 33.6239 9.05634 34.2517Z" fill="#39424E"/>
<path d="M10.5472 39.5881C10.2072 39.7451 9.78862 40.1113 9.63166 40.3729C9.23928 41.053 10.3641 41.9947 12.2999 42.5702C14.6542 43.3027 20.7231 43.2242 23.4436 42.4395C26.4257 41.5762 26.478 41.5239 24.9347 40.7653C23.6529 40.1375 23.6005 40.1375 21.5863 40.4775C20.226 40.7391 18.4211 40.8176 16.1452 40.7391C12.5091 40.6083 11.1489 40.2944 11.4105 39.6404C11.5936 39.1696 11.3843 39.1434 10.5472 39.5881Z" fill="#39424E"/>
<path d="M4.45228 43.0673C2.56884 43.512 0.423804 44.5845 0.0837377 45.2385C-0.204011 45.7616 0.26685 46.3895 1.23473 46.6772C2.56884 47.0696 7.40825 47.6189 11.6722 47.8805C22.0834 48.5083 33.1748 46.8342 34.692 44.4275C34.9013 44.0613 34.8752 43.852 34.5351 43.5381C34.1165 43.1196 34.0904 43.1196 34.2212 43.6428C34.5351 44.7938 32.2331 45.5785 26.7397 46.154C17.8195 47.1219 7.27745 46.7818 3.66752 45.3954C2.49036 44.9245 3.56288 43.9043 5.81255 43.3027C6.57116 43.0934 7.25129 42.8842 7.32977 42.8057C7.59136 42.5441 5.99566 42.6749 4.45228 43.0673Z" fill="#39424E"/>
<path d="M35.3721 46.8865C31.893 48.6391 25.9287 49.5285 17.7148 49.5547C14.4188 49.5808 10.7042 49.5024 9.47473 49.3977L7.25122 49.2408L8.68996 49.607C14.9681 51.1765 29.3817 50.4964 34.2473 48.4298C35.3983 47.9067 37.2294 46.4418 36.9155 46.2325C36.8632 46.2063 36.1569 46.4941 35.3721 46.8865Z" fill="#39424E"/>
</svg>
