<svg width="59" height="42" viewBox="0 0 59 42" fill="none" xmlns="http://www.w3.org/2000/svg">
<path d="M33.1555 16.762H39.2239H33.1555ZM25.9312 16.762H31.9996H25.9312ZM18.8513 16.762H24.9197H18.8513ZM11.7715 16.762H17.6954H11.7715ZM4.54712 16.762H10.6156H4.54712ZM11.7715 10.1156H17.6954H11.7715ZM18.8513 10.1156H24.9197H18.8513ZM25.9312 10.1156H31.9996H25.9312ZM25.9312 3.46918H31.9996H25.9312Z" fill="#FF6B00"/>
<path d="M33.1555 16.762H39.2239M25.9312 16.762H31.9996M18.8513 16.762H24.9197M11.7715 16.762H17.6954M4.54712 16.762H10.6156M11.7715 10.1156H17.6954M18.8513 10.1156H24.9197M25.9312 10.1156H31.9996M25.9312 3.46918H31.9996" stroke="#FF6B00" stroke-width="5"/>
<path d="M58.5852 17.0509C58.5852 17.0509 55.9844 14.5946 50.6384 15.4615C50.0605 11.2714 45.5814 8.81516 45.5814 8.81516C45.5814 8.81516 41.3913 13.8722 44.4255 19.5072C43.5586 19.9406 42.1137 20.5186 39.9464 20.5186H0.212574C-0.50986 23.2638 -0.509859 41.4691 19.4293 41.4691C33.7335 41.4691 44.4255 34.8228 49.4825 22.6859C56.9958 23.2638 58.5852 17.0509 58.5852 17.0509Z" fill="#39424E"/>
</svg>
