<svg width="57" height="51" viewBox="0 0 57 51" fill="none" xmlns="http://www.w3.org/2000/svg">
<path d="M14.1673 1.05725C13.205 1.59187 12.804 2.04629 12.0823 3.43629C11.2804 4.95994 11.1734 5.52129 11.0398 7.87359C10.9329 9.77147 11.0131 11.3486 11.3338 13.2732C11.6011 14.7969 11.7615 16.0532 11.7081 16.0799C11.6546 16.1067 11.0933 16.2938 10.425 16.4809C9.75672 16.668 8.07268 17.363 6.68268 18.0313C2.56615 20.0093 0 22.923 0 25.5961C0 26.8257 1.20288 28.9107 2.75327 30.3007C4.30365 31.7174 7.93903 33.7489 10.3715 34.5509C11.12 34.7914 11.7615 35.0855 11.7615 35.1657C11.7615 35.2726 11.5744 36.3151 11.3606 37.4912C10.3181 43.3185 11.3873 48.237 14.0336 49.8141C15.5306 50.6695 17.7759 50.6962 20.1282 49.8408C22.3469 49.0389 23.8438 48.1301 26.303 46.152L28.3078 44.5482L29.9919 45.9382C33.6273 48.9587 36.7815 50.4557 39.5882 50.4557C42.4751 50.4557 44.1592 48.9587 45.068 45.5105C45.5492 43.7997 45.5224 39.3624 45.068 36.9566C44.8542 35.9141 44.7473 35.032 44.8007 34.9518C44.8809 34.8984 45.8432 34.4974 46.9392 34.0964C51.2428 32.5461 54.6376 30.0334 55.7603 27.6009C56.482 26.0772 56.5355 25.4357 56.0811 23.9388C55.3059 21.3192 50.9488 18.1115 46.164 16.6145L44.5869 16.1334L44.7473 15.1711C45.8699 8.70224 45.469 4.3986 43.5176 2.17994C42.3682 0.87014 41.4326 0.469177 39.5882 0.469177C36.6478 0.469177 33.654 1.93937 29.6711 5.30744L28.2009 6.56379L27.0248 5.49456C25.2071 3.91744 22.1331 1.93937 20.3956 1.24437C19.5402 0.923599 18.07 0.602833 17.1077 0.54937C15.6642 0.442448 15.1831 0.52264 14.1673 1.05725ZM40.7911 3.0086C42.1009 3.54321 42.8226 5.25398 42.983 8.19436C43.0899 10.3328 42.689 14.4494 42.288 15.0909C42.1544 15.3315 41.2723 15.2513 39.1605 14.9038C37.53 14.6097 35.8994 14.3692 35.4984 14.3692C34.9905 14.3692 34.5628 14.0751 34.0282 13.3534C33.6273 12.8188 32.5313 11.4555 31.6225 10.3328L29.9384 8.27455L31.0878 7.23206C32.9323 5.52129 35.5786 3.86398 37.423 3.22244C39.508 2.50071 39.5882 2.50071 40.7911 3.0086ZM20.1817 3.78379C21.8123 4.55898 23.4963 5.7084 25.9021 7.63301L26.5436 8.1409L24.0844 11.2417L21.6252 14.3157L19.8342 14.5028C18.8452 14.6097 17.2146 14.8503 16.1988 15.0642C15.1831 15.278 14.3009 15.3849 14.2208 15.3047C13.8733 14.984 13.3921 11.3219 13.3654 9.12994C13.3654 6.21629 13.9 4.18475 14.889 3.43629C15.985 2.55418 17.9096 2.68783 20.1817 3.78379ZM31.0344 13.3267L31.569 14.1019H28.2009H24.8329L25.3407 13.3534C25.6348 12.9524 26.3832 12.0436 27.0248 11.3219L28.1742 10.0121L29.3236 11.2951C29.9652 11.9901 30.7136 12.899 31.0344 13.3267ZM30.8205 16.4274L33.4402 16.5878L34.8569 18.8867C35.6321 20.143 36.7815 22.1478 37.423 23.3507L38.5992 25.4891L37.1023 28.1622C36.3003 29.6057 35.1509 31.5838 34.5628 32.5461L33.4936 34.2836L31.0344 34.5241C29.6711 34.6311 27.2921 34.6578 25.7684 34.5509L22.9884 34.3638L21.5717 32.0649C20.7965 30.7818 19.6471 28.8038 19.0056 27.6811L17.8829 25.6228L18.9788 23.4309C19.5936 22.228 20.7431 20.1697 21.545 18.8867L23.0152 16.5344L24.8061 16.4274C25.7952 16.374 26.9713 16.3205 27.399 16.2938C27.8534 16.267 29.3771 16.3205 30.8205 16.4274ZM19.5402 17.6838C19.3798 17.8976 18.6581 19.1005 17.9363 20.3568L16.6265 22.6824L15.7979 20.5172C15.3434 19.3143 14.9692 18.1649 14.9692 17.9778C14.9692 17.657 15.5038 17.5234 19.2461 16.962C19.7807 16.8819 19.9144 17.2294 19.5402 17.6838ZM39.3744 17.3095C40.7911 17.5501 41.4326 17.764 41.4326 18.0313C41.4326 18.2184 41.0584 19.3678 40.604 20.5707L39.7486 22.7359L39.3744 21.9607C39.1338 21.533 38.4388 20.2767 37.7973 19.154C36.5409 16.962 36.434 16.7482 36.9686 16.8819C37.129 16.9353 38.225 17.1492 39.3744 17.3095ZM12.7238 18.8332C12.804 19.1005 13.4188 20.7043 14.0604 22.4151L15.2365 25.5159L14.4881 27.3603C14.0604 28.3761 13.4456 30.0066 13.1248 30.9957L12.5367 32.7866L11.1467 32.2788C5.98769 30.4611 2.40577 27.6009 2.40577 25.3288C2.40577 23.3507 5.53326 20.8647 10.2646 19.0203C12.2427 18.2718 12.5367 18.2451 12.7238 18.8332ZM47.0461 19.4747C50.8686 20.9449 53.9961 23.5645 53.9961 25.302C53.9961 26.8524 51.6972 29.2582 48.8103 30.7284C47.6609 31.3164 44.5067 32.5461 44.1324 32.5461C44.0255 32.5461 43.7582 32.0382 43.5978 31.4234C43.4107 30.8086 42.7692 29.2047 42.2078 27.8682L41.1653 25.4357L42.0742 23.324C42.5553 22.1478 43.1701 20.544 43.4107 19.7688C43.9453 18.1649 43.678 18.1917 47.0461 19.4747ZM40.8713 30.8353C41.3525 32.1184 41.6732 33.1876 41.6465 33.2143C41.5128 33.348 36.7548 34.0964 36.6746 34.0163C36.5142 33.8559 39.6951 28.3226 39.8823 28.4295C39.9625 28.483 40.4169 29.5789 40.8713 30.8353ZM18.5779 31.7174L20.0481 34.2034L19.1927 34.043C18.7115 33.9628 17.6957 33.8291 16.9473 33.7222C14.8356 33.4549 14.7554 33.348 15.3434 31.6907C16.3057 28.9107 16.5998 28.3761 16.8671 28.8038C17.0007 29.0176 17.7759 30.3274 18.5779 31.7174ZM42.7692 37.4111C43.1701 39.7901 43.1969 43.5591 42.7959 44.9759C42.3415 46.6866 41.5663 47.7024 40.4971 48.0499C39.6951 48.3172 39.2675 48.2905 37.7438 47.8093C35.8727 47.248 32.9055 45.4303 31.0077 43.6928L29.9117 42.677L30.9275 41.5543C31.4888 40.9395 32.5848 39.5762 33.36 38.5337L34.7767 36.6359L36.7013 36.4487C37.7705 36.3418 39.3476 36.1012 40.2298 35.8874C41.1119 35.7003 41.9673 35.5399 42.1544 35.5132C42.3148 35.4864 42.5821 36.2884 42.7692 37.4111ZM17.2413 36.1547C18.5779 36.3686 20.0748 36.5557 20.6094 36.5557C21.6252 36.5557 22.0796 37.0368 26.0357 42.1157L26.5704 42.7839L25.3675 43.8532C22.6944 46.2589 19.1659 48.0499 16.9206 48.1301C14.5415 48.237 13.3921 46.2589 13.3654 42.0087C13.3654 39.9237 13.6861 37.1705 14.0336 36.0745C14.1673 35.6736 14.3009 35.6736 17.2413 36.1547ZM31.3819 37.1437C30.7403 38.2664 28.495 40.8326 28.2277 40.7524C27.8267 40.6187 25.1269 37.4378 25.1269 37.0903C25.1269 36.9299 26.41 36.823 28.3613 36.823C30.8473 36.823 31.5423 36.9032 31.3819 37.1437Z" fill="#39424E"/>
<path d="M25.9557 20.9984C24.3786 21.7736 23.4431 23.2438 23.3094 25.008C23.149 27.4138 24.1648 29.1246 26.2765 30.0067C27.9873 30.7284 30.2861 30.3542 31.6227 29.1246C32.9592 27.9217 33.5205 25.3021 32.8523 23.5378C32.5048 22.629 31.3821 21.3994 30.4198 20.8915C29.404 20.3569 27.0517 20.4103 25.9557 20.9984Z" fill="#FF6B00"/>
</svg>
