<svg width="45" height="51" viewBox="0 0 45 51" fill="none" xmlns="http://www.w3.org/2000/svg">
<rect x="10" y="12.4692" width="24.6667" height="26.3333" fill="#FF6B00"/>
<path d="M21.2373 0.559643C20.2317 0.75716 19.5494 1.13424 13.6957 4.52798C10.9304 6.10814 7.2673 8.24494 5.54349 9.25049C2.16771 11.1898 1.19807 11.9978 0.497773 13.3984L0.0668219 14.2962L0.0129529 25.1598C-0.0229597 32.7912 0.0129529 36.2388 0.156603 36.7416C0.479817 37.8549 1.52128 39.2734 2.56275 39.9378C3.06552 40.279 5.1305 41.5 7.15956 42.6672C9.18862 43.8343 11.2895 45.0554 11.8282 45.3606C12.3669 45.6838 14.1984 46.7253 15.8684 47.7129C20.3754 50.3165 20.5011 50.3704 22.0992 50.4602C22.997 50.4961 23.7512 50.4243 24.254 50.2447C24.6849 50.1011 27.1629 48.7544 29.7845 47.246C32.4061 45.7377 36.2847 43.5111 38.4035 42.2901C40.5224 41.087 42.6053 39.7942 43.0183 39.435C43.4852 39.04 44.0059 38.3217 44.365 37.5855L44.9576 36.3825V25.5189V14.6553L44.4548 13.56C44.1675 12.9495 43.6109 12.1415 43.1979 11.7285C42.7849 11.3334 40.5942 9.95079 38.3137 8.63998C36.0513 7.32917 32.2804 5.17441 29.9641 3.82769C27.6477 2.49892 25.3493 1.22403 24.8465 0.990593C23.8051 0.523731 22.2967 0.344166 21.2373 0.559643ZM27.1449 14.1166C31.1492 15.1402 30.5925 17.0794 26.0496 17.8875C21.3091 18.7135 15.0603 17.6002 15.0603 15.9123C15.0603 14.7451 17.7538 13.7934 21.5246 13.6139C23.0509 13.56 25.9419 13.8114 27.1449 14.1166ZM15.6529 18.2825C17.5922 19.0367 19.4417 19.306 22.4224 19.306C26.6781 19.306 29.5331 18.5878 31.0055 17.1333L31.7597 16.3791V25.465V34.5509L31.0594 35.2333C30.2873 35.9515 28.9944 36.5082 27.0013 36.975C25.2416 37.388 19.6033 37.388 17.8436 36.975C15.8504 36.5082 14.5576 35.9515 13.7854 35.2333L13.0851 34.5509V25.465V16.3791L13.8573 17.1333C14.3062 17.6002 15.0244 18.0491 15.6529 18.2825Z" fill="#39424E"/>
<path d="M16.6407 24.5493C16.0482 24.8545 15.7788 25.3214 15.7788 26.0037C15.7968 26.6681 16.0661 26.9913 17.1255 27.6198C18.0772 28.1764 18.2927 28.5894 17.9156 29.0563C17.6822 29.3256 16.8203 29.3077 16.102 29.0204C15.8327 28.9126 15.7788 28.9845 15.7788 29.4334C15.7788 29.9541 15.8327 29.99 16.6048 30.1157C18.2029 30.3491 19.3701 29.6668 19.3701 28.4817C19.3701 27.7455 19.1905 27.512 18.0772 26.8656C17.359 26.4347 17.1255 26.2012 17.1255 25.878C17.1255 25.2675 17.5924 25.052 18.4723 25.2675C19.1905 25.465 19.1905 25.465 19.1905 24.9802C19.1905 24.6211 19.0828 24.4595 18.7955 24.3697C18.0952 24.1901 17.1435 24.2619 16.6407 24.5493Z" fill="#39424E"/>
<path d="M21.8839 24.4595C21.2554 24.7109 20.8244 25.1418 20.4294 25.9139C19.5675 27.6018 20.4833 29.7746 22.2071 30.1157C22.5123 30.1696 23.051 30.5467 23.4281 30.9238C23.9488 31.4624 24.2541 31.6241 24.703 31.6241C25.0262 31.6241 25.2956 31.5702 25.2956 31.4804C25.2956 31.4086 24.9544 31.0674 24.5414 30.7083L23.7872 30.0619L24.3259 29.7746C25.547 29.1461 26.0856 26.8477 25.2956 25.5728C24.6671 24.5134 23.051 23.9926 21.8839 24.4595ZM24.0207 25.8062C24.29 26.1474 24.3977 26.5424 24.3977 27.2248C24.3977 28.4997 23.9309 29.1102 22.9612 29.1102C21.4529 29.1102 20.8244 27.1709 21.9018 25.7883C22.4226 25.1418 23.4999 25.1598 24.0207 25.8062Z" fill="#39424E"/>
<path d="M26.8576 24.3697C26.7858 24.4415 26.7319 25.7344 26.7319 27.2607V30.008H28.4378C30.1436 30.008 30.1436 30.008 30.1436 29.5591C30.1436 29.1281 30.0898 29.1102 29.0663 29.1102H28.0068L27.953 26.722L27.8991 24.3517L27.4502 24.2979C27.1988 24.2619 26.9295 24.2979 26.8576 24.3697Z" fill="#39424E"/>
</svg>
