<svg width="50" height="51" viewBox="0 0 50 51" fill="none" xmlns="http://www.w3.org/2000/svg">
<path d="M20.6139 3.48351C22.9961 1.10128 23.4281 0.734783 24.2134 0.538445C24.8024 0.381374 25.771 0.499176 26.3993 0.813316C27.2109 1.21908 49.2662 23.2875 49.685 24.1121C50.0777 24.9106 50.0908 26.0624 49.6981 26.8608C49.4887 27.2928 46.3473 30.5127 38.0618 38.7851C28.7292 48.1046 26.6087 50.1596 26.1768 50.3036C25.3784 50.5654 24.305 50.513 23.6506 50.1727C22.826 49.7539 0.718291 27.6724 0.299436 26.8608C-0.0932405 26.0755 -0.10633 24.7928 0.299436 24.0467C0.456506 23.7325 3.68954 20.4079 8.2315 15.8659L15.9018 8.20872L18.1924 5.91811L20.6139 3.48351Z" fill="#FF6B00"/>
<path d="M24.2134 0.538445C23.4281 0.734783 22.9961 1.10128 20.6139 3.48352L18.1924 5.91811L21.0458 8.77156L23.8993 11.625L24.5407 11.4941C26.9752 10.9967 29.3575 13.4182 28.8994 15.9314L28.7816 16.6382L31.4387 19.2953L34.0958 21.9524H35.3785C36.5435 21.9524 36.7005 21.9786 37.355 22.3451C38.0094 22.7116 38.7163 23.4315 39.0566 24.0728C39.3969 24.7273 39.4885 25.7744 39.2791 26.6122C38.5723 29.3478 35.5879 30.4604 33.2712 28.8635C32.5643 28.3792 32.0277 27.5415 31.7921 26.5598C31.6088 25.8268 31.6088 25.6435 31.7659 24.9891L31.9622 24.2561L29.4229 21.7299L26.8967 19.2037V25.9053V32.5939L27.7213 33.4316C28.3758 34.0861 28.5983 34.4133 28.7816 35.0285C29.2135 36.416 28.8601 37.8558 27.813 38.9029C27.0407 39.6752 26.2553 40.0024 25.1297 40.0024C23.9647 40.0155 22.9569 39.5574 22.1977 38.6935C20.6662 36.9526 21.0589 34.1777 23.0354 32.9342L23.6244 32.5547V25.7352V18.9157L22.9961 18.523C22.3024 18.0911 21.6087 17.1487 21.3862 16.3371C21.2422 15.8135 21.2814 14.413 21.4516 14.0334C21.504 13.8894 20.6924 12.9994 18.716 11.0229L15.9018 8.20872L8.2315 15.8659C3.68954 20.4079 0.456506 23.7325 0.299436 24.0467C-0.10633 24.7927 -0.0932405 26.0755 0.299436 26.8608C0.71829 27.6724 22.826 49.7539 23.6506 50.1727C24.305 50.513 25.3784 50.5654 26.1768 50.3036C26.6087 50.1596 28.7292 48.1046 38.0618 38.7851C46.3473 30.5127 49.4887 27.2928 49.6981 26.8608C50.0908 26.0624 50.0777 24.9106 49.685 24.1121C49.2662 23.2875 27.2108 1.21908 26.3993 0.813316C25.771 0.499176 24.8024 0.381374 24.2134 0.538445Z" fill="#39424E"/>
</svg>
