<svg width="50" height="51" viewBox="0 0 50 51" fill="none" xmlns="http://www.w3.org/2000/svg">
<path d="M0 2.46918C0 1.36461 0.89543 0.469177 2 0.469177H48C49.1046 0.469177 50 1.36461 50 2.46918V48.4692C50 49.5737 49.1046 50.4692 48 50.4692H2C0.895432 50.4692 0 49.5737 0 48.4692V2.46918Z" fill="#39424E"/>
<path d="M45.9078 38.5443C45.5418 36.2629 44.0541 34.3475 39.6483 32.5604C38.1793 31.8852 36.5482 31.394 35.9699 30.33C35.9216 30.2411 35.8893 30.1443 35.8649 30.0461C35.7196 29.4613 35.7072 29.1076 35.8127 28.7296C36.1406 27.4036 37.7233 26.9901 38.9781 27.3703C39.1492 27.4277 39.3183 27.5008 39.483 27.5899C40.5524 28.168 42.1537 28.5153 43.178 27.8607C44.1122 27.2637 44.2436 26.0823 43.4648 25.2934C42.1673 23.8438 40.3992 23.0976 37.5713 23.1546C37.0817 23.2164 36.5875 23.2829 36.0979 23.3447C34.6863 23.7012 33.3412 24.4426 32.5522 25.436C30.1853 28.1213 30.8602 32.8218 33.7405 34.7563C36.5779 36.8856 40.7462 37.3704 41.2785 39.3618C41.7965 41.8 39.4867 42.589 37.191 42.3086C36.1421 42.0905 35.3817 41.677 34.7129 41.0216C33.953 40.2769 32.8188 39.9514 31.8973 40.4835C31.7043 40.595 31.5227 40.6998 31.3224 40.8152C30.4279 41.3306 30.0621 42.4609 30.7364 43.2428C30.9452 43.4849 31.1776 43.7365 31.4449 44.0386C35.0666 47.7126 44.1302 47.532 45.7557 41.9711C45.8222 41.781 46.2595 40.5072 45.9078 38.5443ZM27.183 25.4492C27.1815 24.3447 26.2861 23.4492 25.1815 23.4492H24.5047C23.4002 23.4492 22.5048 24.3447 22.5033 25.4492C22.499 28.8152 22.4858 32.1679 22.4858 35.5405C22.4858 38.1118 22.6188 40.4692 22.2006 41.1916C21.5162 42.6127 19.7434 42.4369 18.9354 42.1611C18.1131 41.7572 17.6949 41.1821 17.2101 40.3694C17.0528 40.094 16.7831 40.0397 16.5126 40.2052C15.9055 40.5765 15.2993 40.9487 14.6929 41.3207C13.8138 41.8599 13.4639 43.0012 14.1033 43.8104C14.6099 44.4516 15.2106 45.0045 15.8983 45.4264C17.6806 46.4958 20.076 46.8237 22.5808 46.2486C24.211 45.7733 25.6178 44.7895 26.3545 43.2924C27.4192 41.3294 27.191 38.953 27.1815 36.3247C27.2016 32.7024 27.1878 29.0801 27.183 25.4492Z" fill="#FF6B00"/>
</svg>
