<svg width="43" height="51" viewBox="0 0 43 51" fill="none" xmlns="http://www.w3.org/2000/svg">
<path d="M2.47149 11.5612L18.8749 1.94581C20.4312 1.03348 22.3584 1.03033 23.9178 1.93758L40.4631 11.5638C42.002 12.4591 42.9487 14.1052 42.9487 15.8855V34.3301C42.9487 36.061 42.0535 37.6688 40.5821 38.5804L24.0372 48.8314C22.4188 49.8342 20.3712 49.8307 18.7561 48.8225L2.35231 38.5825C0.889086 37.6691 0 36.066 0 34.3411V15.8747C0 14.1001 0.94057 12.4585 2.47149 11.5612Z" fill="#39424E"/>
<path d="M18.7561 48.8226L1.43218 38.0082C0.787544 37.6058 0.809607 36.6598 1.4723 36.2878L35.5016 17.1895C38.8346 15.3189 42.9487 17.7277 42.9487 21.5497V34.3301C42.9487 36.061 42.0535 37.6688 40.5821 38.5804L24.0372 48.8314C22.4188 49.8342 20.3712 49.8308 18.7561 48.8226Z" fill="#4C5560"/>
<mask id="path-3-inside-1_97_432" fill="white">
<ellipse cx="21.3141" cy="24.9884" rx="14.2628" ry="14.2628"/>
</mask>
<path d="M13.5769 24.9884C13.5769 20.7152 17.041 17.2512 21.3141 17.2512V61.2512C41.3415 61.2512 57.5769 45.0158 57.5769 24.9884H13.5769ZM21.3141 17.2512C25.5872 17.2512 29.0513 20.7152 29.0513 24.9884H-14.9487C-14.9487 45.0158 1.28668 61.2512 21.3141 61.2512V17.2512ZM29.0513 24.9884C29.0513 29.2615 25.5872 32.7256 21.3141 32.7256V-11.2744C1.28668 -11.2744 -14.9487 4.96097 -14.9487 24.9884H29.0513ZM21.3141 32.7256C17.041 32.7256 13.5769 29.2615 13.5769 24.9884H57.5769C57.5769 4.96097 41.3415 -11.2744 21.3141 -11.2744V32.7256Z" fill="#FF6B00" mask="url(#path-3-inside-1_97_432)"/>
<path d="M42.9486 14.7176V35.4183C42.9486 36.18 42.1311 36.662 41.4646 36.2934L21.314 25.1487L41.4593 13.8455C42.1258 13.4715 42.9486 13.9533 42.9486 14.7176Z" fill="#6B7078"/>
<rect x="33.1001" y="22.1359" width="1" height="6" fill="#FF6B00"/>
<rect x="35.7668" y="22.1359" width="1" height="6" fill="#FF6B00"/>
<rect x="31.9333" y="26.9692" width="1" height="6" transform="rotate(-90 31.9333 26.9692)" fill="#FF6B00"/>
<rect x="31.9333" y="24.3026" width="1" height="6" transform="rotate(-90 31.9333 24.3026)" fill="#FF6B00"/>
</svg>
