<svg width="47" height="51" viewBox="0 0 47 51" fill="none" xmlns="http://www.w3.org/2000/svg">
<path d="M21.8334 10.8025L17.6667 12.4692L18.0001 15.6359L20.3334 17.1359L23.5001 17.4692L26.6667 16.6359L31.3334 13.6359L21.8334 10.8025Z" fill="#FF6B00"/>
<path d="M4.16659 36.4692L2.33325 37.3025L1.33325 38.4692V45.4692L2.83325 46.6358L6.83325 47.4692L12.1666 49.1358L15.6666 49.6358L18.1666 48.4692L19.9999 45.8025L9.99992 32.6358L4.99992 36.4692H4.16659Z" fill="#FF6B00"/>
<path d="M4.16659 36.4692L2.33325 37.3025L1.33325 38.4692V45.4692L2.83325 46.6358L6.83325 47.4692L12.1666 49.1358L15.6666 49.6358L18.1666 48.4692L19.9999 45.8025L9.99992 32.6358L4.99992 36.4692H4.16659Z" fill="#FF6B00"/>
<path d="M4.16659 36.4692L2.33325 37.3025L1.33325 38.4692V45.4692L2.83325 46.6358L6.83325 47.4692L12.1666 49.1358L15.6666 49.6358L18.1666 48.4692L19.9999 45.8025L9.99992 32.6358L4.99992 36.4692H4.16659Z" stroke="#39424E"/>
<path d="M43.0001 35.4692L44.0001 37.6358L44.6667 39.1358L46.6667 41.6358L45.3334 43.3025L39.8334 47.3025L35.3334 49.6358L31.3334 49.8025L29.8334 47.4692L30.8334 36.8025L32.6667 34.4692L41.6667 35.3025L43.0001 35.4692Z" fill="#FF6B00"/>
<path d="M43.0001 35.4692L44.0001 37.6358L44.6667 39.1358L46.6667 41.6358L45.3334 43.3025L39.8334 47.3025L35.3334 49.6358L31.3334 49.8025L29.8334 47.4692L30.8334 36.8025L32.6667 34.4692L41.6667 35.3025L43.0001 35.4692Z" fill="#FF6B00"/>
<path d="M22.2085 0.583012C18.036 1.18238 16.1918 4.2484 15.7999 11.3025C15.4541 17.204 15.0391 18.495 12.5725 21.4458C9.50647 25.065 8.14635 27.9697 7.91583 31.3584C7.80056 33.0874 7.73141 33.2718 6.87845 34.24C6.39435 34.8164 5.86413 35.4388 5.67971 35.6463C5.51834 35.8537 4.71149 36.1304 3.90465 36.2917C2.79812 36.4762 2.2679 36.7067 1.76074 37.2369C1.30369 37.6792 1.04402 38.2869 1.04032 38.9229L1.02305 41.8936L1.00499 45.0176C1.00181 45.5694 1.22497 46.0983 1.62242 46.4811C2.06043 46.9191 2.56759 47.1265 3.4897 47.2418C5.54139 47.5184 9.20678 48.4405 11.3046 49.2474C14.0018 50.2617 16.0304 50.3078 17.598 49.3857C18.1974 49.0399 18.9581 48.3483 19.2808 47.8642C19.9494 46.8268 20.4565 46.6885 23.6378 46.6885C25.7126 46.6885 28.1331 47.1265 29.1935 47.6798C29.4932 47.8412 29.9312 48.3253 30.1848 48.7633C30.7842 49.9159 32.029 50.4692 33.9424 50.4692C36.0402 50.4461 37.7 49.5932 40.6968 47.0343C41.9648 45.9508 43.6245 44.7521 44.3853 44.4063C46.0451 43.5995 46.7828 42.8618 46.9441 41.8013C47.1286 40.764 46.5984 39.7266 45.561 39.0811C44.7311 38.574 44.6389 38.4126 44.3622 36.9603C44.2239 36.1304 43.6015 35.2774 42.7946 34.8164C42.4258 34.6089 42.4258 34.5167 42.7946 33.5485C43.0252 32.903 43.1865 31.7734 43.1865 30.5516C43.2327 26.6326 41.5959 23.6358 36.8701 19.0022C34.6109 16.7891 33.758 15.7748 33.32 14.8296C32.6514 13.3542 32.2826 11.6253 32.2826 9.82716C32.2826 8.0521 31.7524 5.72377 31.0377 4.31755C29.6085 1.52817 26.1045 0.029747 22.2085 0.583012ZM21.0328 8.0521C21.1251 8.19042 21.2173 8.67453 21.2173 9.11253C21.2173 10.1499 21.0559 10.3574 20.0185 10.7954C19.373 11.072 19.1195 11.0951 18.9581 10.8876C17.9438 9.59664 19.1195 6.87641 20.3874 7.54494C20.664 7.68326 20.9406 7.91378 21.0328 8.0521ZM26.8191 8.12126C27.4646 8.8359 27.5107 9.68885 27.0035 10.8184L26.5425 11.8789L25.2746 11.2564C23.9144 10.5879 23.7992 10.3343 24.2372 9.18169C24.7674 7.77547 26.0122 7.26831 26.8191 8.12126ZM25.1362 12.2247C26.0814 12.6396 27.234 13.0546 27.6951 13.1237C31.3605 13.7692 26.1967 17.2271 22.0702 16.9044C21.2864 16.8352 20.2721 16.6047 19.8572 16.3972C18.9811 15.9361 19.0273 15.6826 19.9263 16.0284C20.2721 16.1436 21.102 16.2589 21.7705 16.2589C24.3986 16.2589 28.1331 14.553 27.0035 13.8614C26.8882 13.7922 26.1275 14.0458 25.2976 14.4377C22.831 15.5904 20.226 15.5673 18.6815 14.4147C18.1974 14.0458 18.1513 13.9075 18.3357 13.3542C18.6354 12.5243 19.5344 11.8789 20.9176 11.51C22.2777 11.1412 22.9232 11.2564 25.1362 12.2247ZM27.7412 17.9648C27.9026 19.6015 28.5711 21.0769 30.715 24.627C32.5362 27.6469 33.4583 29.9292 33.4122 31.4507C33.3891 32.8799 32.9281 33.9403 32.0751 34.5167C30.5997 35.5079 30.3231 36.1073 30.3001 38.4126C30.277 40.9023 30.0465 41.225 27.4415 42.4929C25.7356 43.3228 25.6665 43.3459 22.9462 43.3459C20.5487 43.3459 20.0185 43.2767 18.9812 42.8157C18.3357 42.516 17.621 42.078 17.4136 41.8474C17.0908 41.4786 17.0908 41.4325 17.621 41.0867C17.9207 40.8792 18.3126 40.326 18.4509 39.8649C19.0042 38.1821 17.9668 36.2456 15.431 34.1939C14.6242 33.5485 13.7943 32.7647 13.5638 32.4419C12.2728 30.4824 13.1719 27.1628 16.1918 23.0133C17.6671 20.9616 18.2665 19.7629 18.6815 18.057L18.9581 16.9735L19.6958 17.3424C20.1338 17.5959 21.1251 17.7573 22.3699 17.8034C23.9836 17.8726 24.583 17.7804 25.8278 17.3424C26.6577 17.0427 27.3954 16.766 27.4646 16.743C27.5337 16.743 27.672 17.2732 27.7412 17.9648ZM10.8666 34.5167C11.2585 34.9316 12.4803 36.6145 13.5638 38.2743C14.6242 39.911 16.0304 41.8474 16.6759 42.539C17.9899 43.9914 18.6584 45.3054 18.6815 46.4349C18.6815 48.0717 16.1687 49.4549 13.9556 48.9938C13.4485 48.9016 11.7887 48.3944 10.2672 47.8873C8.74573 47.3801 6.4174 46.7807 5.08034 46.5502C3.74328 46.3427 2.49843 46.02 2.31401 45.8586C2.01432 45.605 1.96822 44.9135 1.96822 41.9397L1.99127 38.3204L2.63675 37.7902C2.98254 37.4905 3.55886 37.2369 3.9277 37.2369C5.08034 37.2369 5.84108 36.7758 7.27035 35.2544C8.9532 33.4793 9.66784 33.3179 10.8666 34.5167ZM34.2882 36.0843C34.2651 37.0294 34.3804 37.3522 34.8414 37.8363C36.1555 39.1503 38.8987 38.6662 40.8813 36.7528C41.9186 35.7615 42.1492 35.6232 42.5872 35.8307C42.9099 35.969 43.1865 36.43 43.371 37.0525C43.8551 38.8967 44.0856 39.2655 44.9847 39.8649C46.7597 41.0406 46.3448 42.3316 43.7859 43.6225C42.956 44.0375 41.2501 45.2593 39.9822 46.3427C37.1928 48.7402 36.1324 49.2935 34.1038 49.4088C31.4757 49.5701 30.5306 48.648 30.715 46.0661C30.7842 45.3284 30.9916 44.0605 31.2222 43.2537C31.568 42.0319 31.591 41.5708 31.3835 40.3721C31.0377 38.4126 31.0608 37.6288 31.4988 36.5453C31.9137 35.554 32.6975 34.9547 33.6888 34.9316C34.2651 34.9316 34.3112 34.9777 34.2882 36.0843Z" fill="#39424E"/>
<path d="M19.4884 9.57362C19.3962 9.73499 19.4193 9.94247 19.5576 10.0808C19.8803 10.4035 20.595 10.1269 20.4797 9.73499C20.3414 9.36615 19.6959 9.25089 19.4884 9.57362Z" fill="#39424E"/>
<path d="M25.0209 10.0346C24.8364 10.3343 25.09 10.7262 25.4819 10.7262C25.8047 10.7262 26.1043 10.173 25.8969 9.94243C25.6663 9.73496 25.1822 9.78106 25.0209 10.0346Z" fill="#39424E"/>
</svg>
