<svg width="60" height="37" viewBox="0 0 60 37" fill="none" xmlns="http://www.w3.org/2000/svg">
<path d="M29.9385 1.03369C27.1593 1.75377 24.6706 3.45921 22.8767 5.91C22.4851 6.44059 22.1061 6.97117 22.0303 7.11013C21.904 7.32489 21.8661 7.32489 21.1208 6.99644C18.4931 5.80894 15.4107 5.84684 12.8209 7.08487C9.46056 8.68925 7.24979 12.2644 7.14873 16.2437L7.12346 17.4439L6.36549 17.6081C3.27042 18.2271 0.996487 20.3368 0.251144 23.2803C-0.0520463 24.4678 -0.0899452 26.6028 0.187979 27.626C0.781728 29.8494 2.51244 31.9591 4.59687 32.9824C6.07493 33.7151 6.74447 33.8162 10.1806 33.8162H13.2252L12.7451 32.8308C11.9745 31.3022 11.7219 30.1273 11.7092 28.1945C11.6966 26.2617 11.8734 25.4279 12.6567 23.8361C13.3262 22.4718 14.7411 21.019 16.2192 20.1852C17.2172 19.6167 19.4153 18.783 19.9206 18.783C20.148 18.783 20.2238 18.6693 20.3375 18.2398C21.765 12.6055 25.6812 9.14404 31.3282 8.53765C34.6127 8.18393 37.9731 9.23247 40.2091 11.3295C40.6513 11.7338 41.1692 12.3023 41.3587 12.5802L41.7124 13.0729L42.1672 12.8834C42.9505 12.5549 43.8348 12.3528 44.9212 12.2644L45.9445 12.1886L45.8308 11.5443C45.6413 10.521 45.1107 8.94191 44.6307 7.98181C43.0642 4.8741 40.6007 2.6886 37.3036 1.47584C35.017 0.642071 32.1493 0.47784 29.9385 1.03369Z" fill="#FF6B00"/>
<path d="M31.328 10.3948C31.1512 10.42 30.6711 10.5085 30.2542 10.5843C26.2875 11.2665 23.483 13.9699 22.3081 18.2525C22.1312 18.8588 21.967 19.5537 21.9291 19.8063L21.8533 20.2611L20.6153 20.4759C16.9391 21.1201 14.463 23.2298 13.8819 26.2112C13.6924 27.2092 13.8061 29.6853 14.0841 30.7212C14.4378 32.0097 15.1452 33.2983 15.979 34.1321C17.217 35.3827 18.6698 36.0649 20.7542 36.3428C21.3985 36.4186 27.5002 36.4692 38.2509 36.4692C56.2149 36.4692 55.8359 36.4818 57.0866 35.7617C57.8319 35.3322 58.7162 34.41 59.1584 33.5889C59.9416 32.1613 60.2195 29.8621 59.8153 28.1567C59.2594 25.8196 57.5793 24.0889 55.2674 23.4446L54.5095 23.2425L54.3705 21.9918C54.1431 19.9074 53.7136 18.7578 52.6271 17.305C51.566 15.9027 49.7342 14.7658 47.7887 14.2984C46.3612 13.9573 44.0999 14.071 42.6977 14.5763C42.1039 14.7784 41.5354 14.9932 41.4217 15.0437C41.2828 15.1069 41.1185 14.9679 40.8406 14.5889C39.4636 12.6813 37.2908 11.1907 35.08 10.6474C34.2336 10.4327 31.947 10.2811 31.328 10.3948Z" fill="#39424E"/>
</svg>
