<svg width="50" height="51" viewBox="0 0 50 51" fill="none" xmlns="http://www.w3.org/2000/svg">
<path d="M24.4325 0.469612C22.3931 0.478955 20.4458 0.652905 18.7326 0.956316C13.6849 1.84831 12.7685 3.7146 12.7685 7.15712V11.7034H24.6967V13.2187H8.29159C4.82504 13.2187 1.78915 15.3025 0.839763 19.2664C-0.255544 23.8101 -0.304036 26.6453 0.839763 31.3896C1.68771 34.9211 3.71283 37.4373 7.17937 37.4373H11.2808V31.9875C11.2808 28.0503 14.6873 24.5775 18.7326 24.5775H30.6471C33.9637 24.5775 36.6112 21.8468 36.6112 18.5159V7.15668C36.6112 3.92414 33.884 1.49552 30.6471 0.955872C28.5975 0.61509 26.4718 0.459825 24.4325 0.469612ZM17.9816 4.12568C19.214 4.12568 20.2198 5.14847 20.2198 6.40571C20.2198 7.65851 19.2135 8.67196 17.9816 8.67196C16.7453 8.67196 15.7434 7.65895 15.7434 6.40571C15.7434 5.14847 16.7453 4.12568 17.9816 4.12568Z" fill="#39424E"/>
<path d="M38.099 13.2182V18.515C38.099 22.6218 34.6173 26.0781 30.6471 26.0781H18.7327C15.469 26.0781 12.7686 28.8711 12.7686 32.1396V43.498C12.7686 46.731 15.5793 48.6324 18.7327 49.5596C22.5084 50.67 26.1293 50.8706 30.6471 49.5596C33.6501 48.6902 36.6113 46.9401 36.6113 43.498V38.9522H24.6968V37.4369H42.5754C46.0424 37.4369 47.3339 35.0185 48.5395 31.3891C49.7852 27.653 49.7323 24.0592 48.5395 19.266C47.6827 15.815 46.0464 13.2182 42.5754 13.2182H38.099ZM31.3977 41.9827C32.634 41.9827 33.6359 42.9957 33.6359 44.249C33.6359 45.5062 32.634 46.529 31.3977 46.529C30.1653 46.529 29.1595 45.5062 29.1595 44.249C29.1595 42.9962 30.1658 41.9827 31.3977 41.9827Z" fill="#FF6B00"/>
</svg>
