<svg width="95" height="86" viewBox="0 0 95 86" fill="none" xmlns="http://www.w3.org/2000/svg">
<rect y="0.469177" width="95" height="85" rx="5" fill="white"/>
<path d="M26.612 47.4692L22.94 39.0692H24.632L27.908 46.6652H26.936L30.248 39.0692H31.808L28.148 47.4692H26.612ZM32.849 47.4692V41.0612H34.349V47.4692H32.849ZM33.605 40.0052C33.325 40.0052 33.093 39.9172 32.909 39.7412C32.733 39.5652 32.645 39.3532 32.645 39.1052C32.645 38.8492 32.733 38.6372 32.909 38.4692C33.093 38.2932 33.325 38.2052 33.605 38.2052C33.885 38.2052 34.113 38.2892 34.289 38.4572C34.473 38.6172 34.565 38.8212 34.565 39.0692C34.565 39.3332 34.477 39.5572 34.301 39.7412C34.125 39.9172 33.893 40.0052 33.605 40.0052ZM39.5697 47.5532C38.8577 47.5532 38.2337 47.4132 37.6977 47.1332C37.1697 46.8452 36.7577 46.4532 36.4617 45.9572C36.1737 45.4612 36.0297 44.8972 36.0297 44.2652C36.0297 43.6252 36.1697 43.0612 36.4497 42.5732C36.7377 42.0772 37.1297 41.6892 37.6257 41.4092C38.1297 41.1292 38.7017 40.9892 39.3417 40.9892C39.9657 40.9892 40.5217 41.1252 41.0097 41.3972C41.4977 41.6692 41.8817 42.0532 42.1617 42.5492C42.4418 43.0452 42.5818 43.6292 42.5818 44.3012C42.5818 44.3652 42.5777 44.4372 42.5697 44.5172C42.5697 44.5972 42.5657 44.6732 42.5577 44.7452H37.2177V43.7492H41.7657L41.1777 44.0612C41.1857 43.6932 41.1097 43.3692 40.9497 43.0892C40.7897 42.8092 40.5697 42.5892 40.2897 42.4292C40.0177 42.2692 39.7017 42.1892 39.3417 42.1892C38.9737 42.1892 38.6497 42.2692 38.3697 42.4292C38.0977 42.5892 37.8817 42.8132 37.7217 43.1012C37.5697 43.3812 37.4937 43.7132 37.4937 44.0972V44.3372C37.4937 44.7212 37.5817 45.0612 37.7577 45.3572C37.9337 45.6532 38.1817 45.8812 38.5017 46.0412C38.8217 46.2012 39.1897 46.2812 39.6057 46.2812C39.9657 46.2812 40.2897 46.2252 40.5777 46.1132C40.8657 46.0012 41.1217 45.8252 41.3457 45.5852L42.1497 46.5092C41.8617 46.8452 41.4977 47.1052 41.0577 47.2892C40.6257 47.4652 40.1297 47.5532 39.5697 47.5532ZM45.5614 47.4692L43.2094 41.0612H44.6254L46.6414 46.7132H45.9694L48.0814 41.0612H49.3414L51.3934 46.7132H50.7334L52.8094 41.0612H54.1414L51.7774 47.4692H50.3374L48.4654 42.4652H48.9094L47.0014 47.4692H45.5614ZM62.9172 47.4692V46.1732L62.8332 45.8972V43.6292C62.8332 43.1892 62.7012 42.8492 62.4372 42.6092C62.1732 42.3612 61.7732 42.2372 61.2372 42.2372C60.8772 42.2372 60.5212 42.2932 60.1692 42.4052C59.8252 42.5172 59.5332 42.6732 59.2932 42.8732L58.7052 41.7812C59.0492 41.5172 59.4572 41.3212 59.9292 41.1932C60.4092 41.0572 60.9052 40.9892 61.4172 40.9892C62.3452 40.9892 63.0612 41.2132 63.5652 41.6612C64.0772 42.1012 64.3332 42.7852 64.3332 43.7132V47.4692H62.9172ZM60.9012 47.5532C60.4212 47.5532 60.0012 47.4732 59.6412 47.3132C59.2812 47.1452 59.0012 46.9172 58.8012 46.6292C58.6092 46.3332 58.5132 46.0012 58.5132 45.6332C58.5132 45.2732 58.5972 44.9492 58.7652 44.6612C58.9412 44.3732 59.2252 44.1452 59.6172 43.9772C60.0092 43.8092 60.5292 43.7252 61.1772 43.7252H63.0372V44.7212H61.2852C60.7732 44.7212 60.4292 44.8052 60.2532 44.9732C60.0772 45.1332 59.9892 45.3332 59.9892 45.5732C59.9892 45.8452 60.0972 46.0612 60.3132 46.2212C60.5292 46.3812 60.8292 46.4612 61.2132 46.4612C61.5812 46.4612 61.9092 46.3772 62.1972 46.2092C62.4932 46.0412 62.7052 45.7932 62.8332 45.4652L63.0852 46.3652C62.9412 46.7412 62.6812 47.0332 62.3052 47.2412C61.9372 47.4492 61.4692 47.5532 60.9012 47.5532ZM66.4982 47.4692V38.5652H67.9982V47.4692H66.4982ZM70.207 47.4692V38.5652H71.707V47.4692H70.207Z" fill="#FF6B00"/>
<path d="M23 48.9692H72.691V49.5692H23V48.9692Z" fill="#FF6B00"/>
</svg>
