<svg width="128" height="28" viewBox="0 0 128 28" fill="none" xmlns="http://www.w3.org/2000/svg">
<path d="M18.8051 2.81766C22.6025 5.55967 25.7349 9.31866 28.4402 12.4106L21.9773 13.7032C19.4006 10.7652 16.2603 5.64412 11.3096 6.58512C6.35894 7.52612 4.44949 14.2665 8.40903 17.7824C12.3669 21.2982 17.4853 18.1943 20.0815 14.2011C21.2474 15.5747 22.5805 17.3033 23.6197 18.4287C20.8267 22.2633 17.1339 25.0433 12.3388 24.8916C7.54365 24.7399 3.51131 21.9083 1.69783 17.1895C-0.113993 12.469 1.49597 6.89017 5.18249 3.65008C8.86902 0.411722 15.0061 0.0773724 18.8051 2.81766Z" fill="#FF6B00"/>
<path fill-rule="evenodd" clip-rule="evenodd" d="M29.9913 11.9605C32.5875 7.9673 37.7921 4.52901 41.7499 8.04484C43.7907 9.85695 44.2724 12.5257 43.5822 14.8154L47.4019 19.241C49.2679 16.1023 49.8032 12.1355 48.4611 8.63771C46.6477 3.91718 42.6153 1.08728 37.8202 0.935613C33.0251 0.783949 29.1962 3.99474 26.4032 7.82941C27.1351 8.67641 27.8485 9.49613 28.5373 10.2876C29.0357 10.8602 29.5211 11.4179 29.9913 11.9605ZM42.7584 23.652L38.928 19.2266C38.9018 19.2319 38.8757 19.2371 38.8494 19.2421C34.6601 20.0398 32.2289 17.0774 29.7326 14.0357C29.2789 13.4828 28.823 12.9274 28.3541 12.3914L21.9773 13.684C22.3175 14.0719 22.6497 14.4532 22.9764 14.8283C25.6571 17.9054 27.9705 20.5608 31.3539 23.0096C34.4629 25.2573 39.1412 25.4384 42.7584 23.652Z" fill="#39424E"/>
<path d="M40.6086 12.9946L50.9414 24.9579L45.2012 24.9579L37.3159 15.8433L40.6086 12.9946Z" fill="#FF6B00"/>
<path opacity="0.5" d="M56.5452 24.9305V21.5465C56.5452 21.2105 56.6432 20.9425 56.8392 20.7425C57.0392 20.5385 57.3232 20.4365 57.6912 20.4365C57.8232 20.4365 57.9472 20.4505 58.0632 20.4785C58.1832 20.5065 58.2832 20.5505 58.3632 20.6105L58.1592 21.1745C58.1032 21.1305 58.0392 21.0985 57.9672 21.0785C57.8952 21.0545 57.8212 21.0425 57.7452 21.0425C57.5892 21.0425 57.4712 21.0865 57.3912 21.1745C57.3112 21.2585 57.2712 21.3865 57.2712 21.5585V21.9185L57.2952 22.2545V24.9305H56.5452ZM56.0172 22.3505V21.7505H58.1532V22.3505H56.0172ZM60.1711 24.9725C59.8431 24.9725 59.5511 24.9025 59.2951 24.7625C59.0391 24.6185 58.8371 24.4225 58.6891 24.1745C58.5411 23.9265 58.4671 23.6445 58.4671 23.3285C58.4671 23.0085 58.5411 22.7265 58.6891 22.4825C58.8371 22.2345 59.0391 22.0405 59.2951 21.9005C59.5511 21.7605 59.8431 21.6905 60.1711 21.6905C60.5031 21.6905 60.7971 21.7605 61.0531 21.9005C61.3131 22.0405 61.5151 22.2325 61.6591 22.4765C61.8071 22.7205 61.8811 23.0045 61.8811 23.3285C61.8811 23.6445 61.8071 23.9265 61.6591 24.1745C61.5151 24.4225 61.3131 24.6185 61.0531 24.7625C60.7971 24.9025 60.5031 24.9725 60.1711 24.9725ZM60.1711 24.3305C60.3551 24.3305 60.5191 24.2905 60.6631 24.2105C60.8071 24.1305 60.9191 24.0145 60.9991 23.8625C61.0831 23.7105 61.1251 23.5325 61.1251 23.3285C61.1251 23.1205 61.0831 22.9425 60.9991 22.7945C60.9191 22.6425 60.8071 22.5265 60.6631 22.4465C60.5191 22.3665 60.3571 22.3265 60.1771 22.3265C59.9931 22.3265 59.8291 22.3665 59.6851 22.4465C59.5451 22.5265 59.4331 22.6425 59.3491 22.7945C59.2651 22.9425 59.2231 23.1205 59.2231 23.3285C59.2231 23.5325 59.2651 23.7105 59.3491 23.8625C59.4331 24.0145 59.5451 24.1305 59.6851 24.2105C59.8291 24.2905 59.9911 24.3305 60.1711 24.3305ZM62.7183 24.9305V21.7265H63.4323V22.6085L63.3483 22.3505C63.4443 22.1345 63.5943 21.9705 63.7983 21.8585C64.0063 21.7465 64.2643 21.6905 64.5723 21.6905V22.4045C64.5403 22.3965 64.5103 22.3925 64.4823 22.3925C64.4543 22.3885 64.4263 22.3865 64.3983 22.3865C64.1143 22.3865 63.8883 22.4705 63.7203 22.6385C63.5523 22.8025 63.4683 23.0485 63.4683 23.3765V24.9305H62.7183ZM68.7695 24.9305V17.9304H71.8295C72.5895 17.9304 73.2562 18.0771 73.8295 18.3705C74.4029 18.6638 74.8495 19.0704 75.1695 19.5905C75.4895 20.1105 75.6495 20.7238 75.6495 21.4305C75.6495 22.1305 75.4895 22.7438 75.1695 23.2705C74.8495 23.7905 74.4029 24.1971 73.8295 24.4905C73.2562 24.7838 72.5895 24.9305 71.8295 24.9305H68.7695ZM70.0695 23.8305H71.7695C72.2962 23.8305 72.7495 23.7305 73.1295 23.5305C73.5162 23.3305 73.8129 23.0505 74.0195 22.6905C74.2329 22.3305 74.3395 21.9105 74.3395 21.4305C74.3395 20.9438 74.2329 20.5238 74.0195 20.1705C73.8129 19.8105 73.5162 19.5305 73.1295 19.3305C72.7495 19.1305 72.2962 19.0305 71.7695 19.0305H70.0695V23.8305ZM79.6213 25.0005C79.0279 25.0005 78.5079 24.8838 78.0613 24.6505C77.6213 24.4105 77.2779 24.0838 77.0313 23.6705C76.7913 23.2571 76.6713 22.7871 76.6713 22.2605C76.6713 21.7271 76.7879 21.2571 77.0213 20.8505C77.2613 20.4371 77.5879 20.1138 78.0013 19.8805C78.4213 19.6471 78.8979 19.5305 79.4313 19.5305C79.9513 19.5305 80.4146 19.6438 80.8213 19.8705C81.2279 20.0971 81.5479 20.4171 81.7813 20.8305C82.0146 21.2438 82.1313 21.7305 82.1313 22.2905C82.1313 22.3438 82.1279 22.4038 82.1213 22.4705C82.1213 22.5371 82.1179 22.6005 82.1113 22.6605H77.6613V21.8305H81.4513L80.9613 22.0905C80.9679 21.7838 80.9046 21.5138 80.7713 21.2805C80.6379 21.0471 80.4546 20.8638 80.2213 20.7305C79.9946 20.5971 79.7313 20.5305 79.4313 20.5305C79.1246 20.5305 78.8546 20.5971 78.6213 20.7305C78.3946 20.8638 78.2146 21.0505 78.0813 21.2905C77.9546 21.5238 77.8913 21.8005 77.8913 22.1205V22.3205C77.8913 22.6405 77.9646 22.9238 78.1113 23.1705C78.2579 23.4171 78.4646 23.6071 78.7313 23.7405C78.9979 23.8738 79.3046 23.9405 79.6513 23.9405C79.9513 23.9405 80.2213 23.8938 80.4613 23.8005C80.7013 23.7071 80.9146 23.5605 81.1013 23.3605L81.7713 24.1305C81.5313 24.4105 81.2279 24.6271 80.8613 24.7805C80.5013 24.9271 80.0879 25.0005 79.6213 25.0005ZM84.8543 24.9305L82.5643 19.5905H83.8643L85.8343 24.3005H85.1943L87.2343 19.5905H88.4343L86.1443 24.9305H84.8543ZM91.7791 25.0005C91.1857 25.0005 90.6657 24.8838 90.2191 24.6505C89.7791 24.4105 89.4357 24.0838 89.1891 23.6705C88.9491 23.2571 88.8291 22.7871 88.8291 22.2605C88.8291 21.7271 88.9457 21.2571 89.1791 20.8505C89.4191 20.4371 89.7457 20.1138 90.1591 19.8805C90.5791 19.6471 91.0557 19.5305 91.5891 19.5305C92.1091 19.5305 92.5724 19.6438 92.9791 19.8705C93.3857 20.0971 93.7057 20.4171 93.9391 20.8305C94.1724 21.2438 94.2891 21.7305 94.2891 22.2905C94.2891 22.3438 94.2857 22.4038 94.2791 22.4705C94.2791 22.5371 94.2757 22.6005 94.2691 22.6605H89.8191V21.8305H93.6091L93.1191 22.0905C93.1257 21.7838 93.0624 21.5138 92.9291 21.2805C92.7957 21.0471 92.6124 20.8638 92.3791 20.7305C92.1524 20.5971 91.8891 20.5305 91.5891 20.5305C91.2824 20.5305 91.0124 20.5971 90.7791 20.7305C90.5524 20.8638 90.3724 21.0505 90.2391 21.2905C90.1124 21.5238 90.0491 21.8005 90.0491 22.1205V22.3205C90.0491 22.6405 90.1224 22.9238 90.2691 23.1705C90.4157 23.4171 90.6224 23.6071 90.8891 23.7405C91.1557 23.8738 91.4624 23.9405 91.8091 23.9405C92.1091 23.9405 92.3791 23.8938 92.6191 23.8005C92.8591 23.7071 93.0724 23.5605 93.2591 23.3605L93.9291 24.1305C93.6891 24.4105 93.3857 24.6271 93.0191 24.7805C92.6591 24.9271 92.2457 25.0005 91.7791 25.0005ZM95.6898 24.9305V17.5105H96.9398V24.9305H95.6898ZM101.18 25.0005C100.634 25.0005 100.147 24.8838 99.7204 24.6505C99.2937 24.4105 98.9571 24.0838 98.7104 23.6705C98.4637 23.2571 98.3404 22.7871 98.3404 22.2605C98.3404 21.7271 98.4637 21.2571 98.7104 20.8505C98.9571 20.4371 99.2937 20.1138 99.7204 19.8805C100.147 19.6471 100.634 19.5305 101.18 19.5305C101.734 19.5305 102.224 19.6471 102.65 19.8805C103.084 20.1138 103.42 20.4338 103.66 20.8405C103.907 21.2471 104.03 21.7205 104.03 22.2605C104.03 22.7871 103.907 23.2571 103.66 23.6705C103.42 24.0838 103.084 24.4105 102.65 24.6505C102.224 24.8838 101.734 25.0005 101.18 25.0005ZM101.18 23.9305C101.487 23.9305 101.76 23.8638 102 23.7305C102.24 23.5971 102.427 23.4038 102.56 23.1505C102.7 22.8971 102.77 22.6005 102.77 22.2605C102.77 21.9138 102.7 21.6171 102.56 21.3705C102.427 21.1171 102.24 20.9238 102 20.7905C101.76 20.6571 101.49 20.5905 101.19 20.5905C100.884 20.5905 100.61 20.6571 100.37 20.7905C100.137 20.9238 99.9504 21.1171 99.8104 21.3705C99.6704 21.6171 99.6004 21.9138 99.6004 22.2605C99.6004 22.6005 99.6704 22.8971 99.8104 23.1505C99.9504 23.4038 100.137 23.5971 100.37 23.7305C100.61 23.8638 100.88 23.9305 101.18 23.9305ZM108.386 25.0005C107.952 25.0005 107.556 24.9005 107.196 24.7005C106.842 24.5005 106.559 24.2005 106.346 23.8005C106.139 23.3938 106.036 22.8805 106.036 22.2605C106.036 21.6338 106.136 21.1205 106.336 20.7205C106.542 20.3205 106.822 20.0238 107.176 19.8304C107.529 19.6305 107.932 19.5305 108.386 19.5305C108.912 19.5305 109.376 19.6438 109.776 19.8705C110.182 20.0971 110.502 20.4138 110.736 20.8205C110.976 21.2271 111.096 21.7071 111.096 22.2605C111.096 22.8138 110.976 23.2971 110.736 23.7105C110.502 24.1171 110.182 24.4338 109.776 24.6605C109.376 24.8871 108.912 25.0005 108.386 25.0005ZM105.426 26.8705V19.5905H106.616V20.8505L106.576 22.2705L106.676 23.6905V26.8705H105.426ZM108.246 23.9305C108.546 23.9305 108.812 23.8638 109.046 23.7305C109.286 23.5971 109.476 23.4038 109.616 23.1505C109.756 22.8971 109.826 22.6005 109.826 22.2605C109.826 21.9138 109.756 21.6171 109.616 21.3705C109.476 21.1171 109.286 20.9238 109.046 20.7905C108.812 20.6571 108.546 20.5905 108.246 20.5905C107.946 20.5905 107.676 20.6571 107.436 20.7905C107.196 20.9238 107.006 21.1171 106.866 21.3705C106.726 21.6171 106.656 21.9138 106.656 22.2605C106.656 22.6005 106.726 22.8971 106.866 23.1505C107.006 23.4038 107.196 23.5971 107.436 23.7305C107.676 23.8638 107.946 23.9305 108.246 23.9305ZM114.991 25.0005C114.398 25.0005 113.878 24.8838 113.431 24.6505C112.991 24.4105 112.648 24.0838 112.401 23.6705C112.161 23.2571 112.041 22.7871 112.041 22.2605C112.041 21.7271 112.158 21.2571 112.391 20.8505C112.631 20.4371 112.958 20.1138 113.371 19.8805C113.791 19.6471 114.268 19.5305 114.801 19.5305C115.321 19.5305 115.785 19.6438 116.191 19.8705C116.598 20.0971 116.918 20.4171 117.151 20.8305C117.385 21.2438 117.501 21.7305 117.501 22.2905C117.501 22.3438 117.498 22.4038 117.491 22.4705C117.491 22.5371 117.488 22.6005 117.481 22.6605H113.031V21.8305H116.821L116.331 22.0905C116.338 21.7838 116.275 21.5138 116.141 21.2805C116.008 21.0471 115.825 20.8638 115.591 20.7305C115.365 20.5971 115.101 20.5305 114.801 20.5305C114.495 20.5305 114.225 20.5971 113.991 20.7305C113.765 20.8638 113.585 21.0505 113.451 21.2905C113.325 21.5238 113.261 21.8005 113.261 22.1205V22.3205C113.261 22.6405 113.335 22.9238 113.481 23.1705C113.628 23.4171 113.835 23.6071 114.101 23.7405C114.368 23.8738 114.675 23.9405 115.021 23.9405C115.321 23.9405 115.591 23.8938 115.831 23.8005C116.071 23.7071 116.285 23.5605 116.471 23.3605L117.141 24.1305C116.901 24.4105 116.598 24.6271 116.231 24.7805C115.871 24.9271 115.458 25.0005 114.991 25.0005ZM118.902 24.9305V19.5905H120.092V21.0605L119.952 20.6305C120.112 20.2705 120.362 19.9971 120.702 19.8105C121.049 19.6238 121.479 19.5305 121.992 19.5305V20.7205C121.939 20.7071 121.889 20.7005 121.842 20.7005C121.795 20.6938 121.749 20.6905 121.702 20.6905C121.229 20.6905 120.852 20.8305 120.572 21.1105C120.292 21.3838 120.152 21.7938 120.152 22.3405V24.9305H118.902ZM124.951 25.0005C124.504 25.0005 124.074 24.9438 123.661 24.8305C123.254 24.7105 122.931 24.5671 122.691 24.4005L123.171 23.4505C123.411 23.6038 123.698 23.7305 124.031 23.8305C124.364 23.9305 124.698 23.9805 125.031 23.9805C125.424 23.9805 125.708 23.9271 125.881 23.8205C126.061 23.7138 126.151 23.5705 126.151 23.3905C126.151 23.2438 126.091 23.1338 125.971 23.0605C125.851 22.9805 125.694 22.9205 125.501 22.8805C125.308 22.8405 125.091 22.8038 124.851 22.7705C124.618 22.7371 124.381 22.6938 124.141 22.6405C123.908 22.5805 123.694 22.4971 123.501 22.3905C123.308 22.2771 123.151 22.1271 123.031 21.9405C122.911 21.7538 122.851 21.5071 122.851 21.2005C122.851 20.8605 122.948 20.5671 123.141 20.3205C123.334 20.0671 123.604 19.8738 123.951 19.7404C124.304 19.6005 124.721 19.5305 125.201 19.5305C125.561 19.5305 125.924 19.5705 126.291 19.6505C126.658 19.7305 126.961 19.8438 127.201 19.9905L126.721 20.9405C126.468 20.7871 126.211 20.6838 125.951 20.6305C125.698 20.5705 125.444 20.5405 125.191 20.5405C124.811 20.5405 124.528 20.5971 124.341 20.7105C124.161 20.8238 124.071 20.9671 124.071 21.1405C124.071 21.3005 124.131 21.4205 124.251 21.5005C124.371 21.5805 124.528 21.6438 124.721 21.6905C124.914 21.7371 125.128 21.7771 125.361 21.8105C125.601 21.8371 125.838 21.8805 126.071 21.9405C126.304 22.0005 126.518 22.0838 126.711 22.1905C126.911 22.2905 127.071 22.4338 127.191 22.6205C127.311 22.8071 127.371 23.0505 127.371 23.3505C127.371 23.6838 127.271 23.9738 127.071 24.2205C126.878 24.4671 126.601 24.6605 126.241 24.8005C125.881 24.9338 125.451 25.0005 124.951 25.0005Z" fill="#39424E"/>
</svg>
