<svg width="1271" height="226" viewBox="0 0 1271 226" fill="none" xmlns="http://www.w3.org/2000/svg">
<path d="M126.631 180.209C117.942 192.169 105.69 201.07 91.6312 205.638C77.5721 210.206 62.4278 210.206 48.3688 205.638C34.3098 201.07 22.0578 192.169 13.3688 180.209C4.67984 168.25 -3.05455e-06 153.847 0 139.064C3.05455e-06 124.282 4.67985 109.879 13.3688 97.9193C22.0578 85.96 34.3098 77.0584 48.3688 72.4903C62.4279 67.9223 77.5722 67.9223 91.6312 72.4903C105.69 77.0584 117.942 85.96 126.631 97.9193L99.8814 117.354C95.2967 111.044 88.8319 106.347 81.4137 103.937C73.9954 101.526 66.0046 101.526 58.5863 103.937C51.1681 106.347 44.7034 111.044 40.1186 117.354C35.5339 123.665 33.0646 131.264 33.0646 139.064C33.0646 146.864 35.5339 154.464 40.1186 160.774C44.7033 167.085 51.1681 171.782 58.5863 174.192C66.0046 176.602 73.9954 176.602 81.4137 174.192C88.8319 171.782 95.2967 167.085 99.8814 160.774L126.631 180.209Z" fill="#39424E"/>
<path d="M383.631 16.5C383.631 7.3873 391.019 0 400.131 0C409.244 0 416.631 7.3873 416.631 16.5V140C398.406 140 383.631 125.225 383.631 107V16.5Z" fill="#39424E"/>
<path d="M305.131 133.431C320.195 110.105 350.393 90.0204 373.358 110.558C396.333 131.095 385.254 170.468 356.528 175.965C327.803 181.472 311.364 154.069 293.672 133.712C277.975 115.651 262.259 96.0407 240.225 80.0236C218.182 64.0166 182.573 65.9697 161.183 84.8861C139.792 103.813 130.451 136.4 140.964 163.975C151.486 191.539 174.883 208.08 202.706 208.965C230.529 209.851 251.955 193.613 268.161 171.213C262.131 164.639 254.396 154.542 247.631 146.518C232.568 169.844 202.869 187.975 179.904 167.438C156.93 146.901 168.009 107.527 196.734 102.031C225.459 96.534 244.639 127.121 259.59 144.283C277.762 165.143 291.013 181.925 313.037 197.972C335.071 214.009 370.689 212.036 392.08 193.109C413.47 174.183 422.812 141.605 412.299 114.021C401.776 86.4466 378.38 69.9161 350.557 69.0302C322.734 68.1442 300.518 86.8996 284.312 109.299C291.631 117.826 298.631 125.88 305.131 133.431Z" fill="#FF6B00"/>
<path d="M373.358 110.558C350.393 90.0204 320.195 110.105 305.131 133.431C298.631 125.88 291.631 117.826 284.312 109.299C300.518 86.8996 322.734 68.1442 350.557 69.0302C378.38 69.9161 401.776 86.4466 412.299 114.021C422.812 141.605 413.47 174.183 392.08 193.109C370.689 212.036 335.071 214.009 313.037 197.972C291.013 181.925 276.803 164.357 258.631 143.498L295.631 135.947C313.323 156.304 327.803 181.472 356.528 175.965C385.254 170.468 396.333 131.095 373.358 110.558Z" fill="#39424E"/>
<path d="M502.434 209.064C487.29 209.064 473.956 206.032 462.434 199.967C451.076 193.902 442.269 185.647 436.014 175.201C429.759 164.588 426.631 152.542 426.631 139.064C426.631 125.418 429.676 113.372 435.767 102.927C442.022 92.3134 450.5 84.0583 461.199 78.1617C471.899 72.0968 483.997 69.0643 497.495 69.0643C510.5 69.0643 522.187 71.9283 532.557 77.6563C543.092 83.2159 551.405 91.3025 557.495 101.916C563.586 112.362 566.631 124.913 566.631 139.57C566.631 141.086 566.549 142.855 566.384 144.877C566.22 146.73 566.055 148.499 565.89 150.183H457.989V127.187H545.644L530.829 134.01C530.829 126.934 529.43 120.785 526.631 115.562C523.833 110.34 519.965 106.297 515.026 103.433C510.088 100.4 504.327 98.8838 497.742 98.8838C491.158 98.8838 485.314 100.4 480.211 103.433C475.273 106.297 471.405 110.424 468.607 115.815C465.808 121.038 464.409 127.271 464.409 134.516V140.581C464.409 147.993 465.973 154.564 469.1 160.292C472.393 165.851 476.919 170.147 482.681 173.18C488.607 176.044 495.52 177.476 503.421 177.476C510.5 177.476 516.672 176.381 521.94 174.191C527.372 172.001 532.31 168.715 536.755 164.335L557.249 187.079C551.158 194.155 543.504 199.63 534.286 203.505C525.067 207.211 514.45 209.064 502.434 209.064Z" fill="#39424E"/>
<path fill-rule="evenodd" clip-rule="evenodd" d="M707.98 172.653C713.494 162.648 716.631 151.148 716.631 138.916C716.631 100.256 685.291 68.916 646.631 68.916C607.971 68.916 576.631 100.256 576.631 138.916C576.631 177.576 607.971 208.916 646.631 208.916C659.491 208.916 671.541 205.448 681.896 199.397L659.525 173.538C655.511 175.034 651.167 175.851 646.631 175.851C626.232 175.851 609.696 159.315 609.696 138.916C609.696 118.517 626.232 101.981 646.631 101.981C667.03 101.981 683.567 118.517 683.567 138.916C683.567 140.637 683.449 142.33 683.221 143.988L707.98 172.653ZM704.694 178.028L681.488 151.161C678.554 159.514 672.703 166.493 665.156 170.877L686.991 196.116C693.93 191.212 699.937 185.076 704.694 178.028Z" fill="#39424E"/>
<path d="M671.546 139.65L731.5 209.064L698.193 209.064L652.44 156.178L671.546 139.65Z" fill="#FF6B00"/>
<path d="M796.973 209C785.52 209 775.264 206.778 766.204 202.333C757.316 197.889 750.393 191.137 745.436 182.077C740.479 172.846 738 161.137 738 146.949V69H777.999V141.051C777.999 152.504 780.392 160.966 785.178 166.436C790.135 171.735 797.058 174.385 805.947 174.385C812.101 174.385 817.571 173.103 822.357 170.538C827.143 167.803 830.904 163.701 833.639 158.231C836.374 152.59 837.741 145.581 837.741 137.205V69H877.74V206.949H839.792V169L846.715 180.026C842.1 189.598 835.262 196.863 826.203 201.821C817.314 206.607 807.571 209 796.973 209Z" fill="#39424E"/>
<path d="M963.802 209C948.658 209 935.325 205.968 923.802 199.903C912.444 193.838 903.638 185.582 897.383 175.137C891.128 164.523 888 152.478 888 139C888 125.354 891.045 113.308 897.136 102.863C903.391 92.2491 911.868 83.994 922.568 78.0975C933.267 72.0325 945.366 69 958.864 69C971.868 69 983.556 71.864 993.926 77.5921C1004.46 83.1516 1012.77 91.2383 1018.86 101.852C1024.95 112.297 1028 124.848 1028 139.505C1028 141.022 1027.92 142.791 1027.75 144.812C1027.59 146.665 1027.42 148.434 1027.26 150.119H919.358V127.123H1007.01L992.198 133.946C992.198 126.87 990.798 120.721 988 115.498C985.202 110.276 981.333 106.232 976.395 103.368C971.457 100.336 965.695 98.8195 959.111 98.8195C952.527 98.8195 946.683 100.336 941.58 103.368C936.642 106.232 932.774 110.36 929.975 115.751C927.177 120.974 925.778 127.207 925.778 134.451V140.516C925.778 147.929 927.342 154.499 930.469 160.227C933.761 165.787 938.288 170.083 944.049 173.116C949.975 175.98 956.889 177.412 964.79 177.412C971.868 177.412 978.041 176.316 983.309 174.126C988.741 171.936 993.679 168.651 998.123 164.271L1018.62 187.014C1012.53 194.09 1004.87 199.566 995.654 203.44C986.436 207.147 975.819 209 963.802 209Z" fill="#39424E"/>
<path d="M1095.71 209C1084.32 209 1073.34 207.652 1062.77 204.957C1052.37 202.093 1044.11 198.555 1038 194.343L1050.88 166.04C1056.99 169.915 1064.17 173.116 1072.43 175.643C1080.85 178.001 1089.11 179.181 1097.2 179.181C1106.12 179.181 1112.39 178.085 1116.02 175.895C1119.82 173.705 1121.72 170.673 1121.72 166.798C1121.72 163.597 1120.23 161.238 1117.26 159.722C1114.45 158.037 1110.66 156.774 1105.87 155.931C1101.08 155.089 1095.79 154.247 1090.02 153.404C1084.4 152.562 1078.7 151.467 1072.92 150.119C1067.15 148.603 1061.86 146.413 1057.07 143.549C1052.28 140.685 1048.4 136.81 1045.43 131.924C1042.62 127.039 1041.22 120.721 1041.22 112.971C1041.22 104.379 1043.61 96.7978 1048.4 90.2274C1053.36 83.657 1060.46 78.5186 1069.7 74.8123C1078.95 70.9374 1090.02 69 1102.9 69C1111.98 69 1121.22 70.0108 1130.64 72.0325C1140.05 74.0542 1147.89 77.0024 1154.17 80.8773L1141.29 108.928C1134.85 105.053 1128.33 102.442 1121.72 101.094C1115.28 99.5776 1109.01 98.8195 1102.9 98.8195C1094.31 98.8195 1088.03 99.9988 1084.07 102.357C1080.11 104.716 1078.13 107.749 1078.13 111.455C1078.13 114.824 1079.53 117.351 1082.34 119.036C1085.31 120.721 1089.19 122.069 1093.98 123.079C1098.77 124.09 1103.97 125.017 1109.58 125.859C1115.36 126.533 1121.14 127.628 1126.92 129.144C1132.7 130.661 1137.9 132.851 1142.53 135.715C1147.31 138.41 1151.2 142.201 1154.17 147.087C1157.14 151.804 1158.63 158.037 1158.63 165.787C1158.63 174.211 1156.15 181.708 1151.2 188.278C1146.24 194.68 1139.06 199.734 1129.65 203.44C1120.4 207.147 1109.09 209 1095.71 209Z" fill="#39424E"/>
<path d="M1238.97 209C1223.28 209 1211.06 205.632 1202.31 198.895C1193.56 192.018 1189.18 181.842 1189.18 168.368V69H1227.82V167.947C1227.82 172.719 1229.31 176.439 1232.28 179.105C1235.26 181.632 1239.3 182.895 1244.42 182.895C1250.53 182.895 1255.73 181.491 1260.02 178.684L1270.43 201.842C1266.46 204.228 1261.68 206.053 1256.06 207.316C1250.61 208.439 1244.92 209 1238.97 209ZM1168.63 121.842V96.5789H1261.02V121.842H1168.63Z" fill="#39424E"/>
</svg>
